<?xml version="1.0" encoding="utf-8"?>
<!-- Generator: Adobe Illustrator 17.1.0, SVG Export Plug-In . SVG Version: 6.00 Build 0)  -->
<!DOCTYPE svg PUBLIC "-//W3C//DTD SVG 1.1//EN" "http://www.w3.org/Graphics/SVG/1.1/DTD/svg11.dtd">
<svg version="1.1" xmlns="http://www.w3.org/2000/svg" xmlns:xlink="http://www.w3.org/1999/xlink" x="0px" y="0px"
	 viewBox="0 0 1200 800" enable-background="new 0 0 1200 800" xml:space="preserve">
<g id="Layer_2">
	<polygon fill-rule="evenodd" clip-rule="evenodd" fill="#FFFFFF" points="929.2,381.7 1047.9,633.3 747.2,582.7 484.5,644.4 
		152.2,609.6 261.4,362.7 514.6,386.4 710.8,331.1 	"/>
	<g>
		<polygon fill-rule="evenodd" clip-rule="evenodd" fill="#EDEDED" points="1047.9,633.3 472,644.2 376.2,454.6 811.5,464.8 		"/>
		<path fill-rule="evenodd" clip-rule="evenodd" fill="#ECECEC" d="M1047.9,633.3c-190.6,3.4-381.1,6.9-571.7,10.3
			c-32.1-63-64.2-126.1-96.3-189.1c143.9,3.4,287.7,6.9,431.6,10.3C890.3,521,969.1,577.2,1047.9,633.3z"/>
		<path fill-rule="evenodd" clip-rule="evenodd" fill="#EBEBEB" d="M1047.9,633.3c-189.2,3.2-378.3,6.5-567.5,9.7
			c-32.3-62.9-64.5-125.7-96.8-188.6c142.6,3.5,285.2,6.9,427.8,10.4C890.3,521,969.1,577.2,1047.9,633.3z"/>
		<path fill-rule="evenodd" clip-rule="evenodd" fill="#EAEAEA" d="M1047.9,633.3c-187.7,3-375.5,6.1-563.2,9.1
			c-32.4-62.7-64.9-125.4-97.3-188.1c141.4,3.5,282.7,7,424,10.4C890.3,521,969.1,577.2,1047.9,633.3z"/>
		<path fill-rule="evenodd" clip-rule="evenodd" fill="#E9E9E9" d="M1047.9,633.3c-186.3,2.8-372.6,5.7-558.9,8.5
			c-32.6-62.5-65.2-125-97.8-187.6c140.1,3.5,280.2,7,420.3,10.5C890.3,521,969.1,577.2,1047.9,633.3z"/>
		<path fill-rule="evenodd" clip-rule="evenodd" fill="#E8E8E8" d="M1047.9,633.3c-184.9,2.6-369.8,5.3-554.7,7.9
			c-32.8-62.4-65.5-124.7-98.3-187.1c138.8,3.5,277.7,7.1,416.5,10.6C890.3,521,969.1,577.2,1047.9,633.3z"/>
		<path fill-rule="evenodd" clip-rule="evenodd" fill="#E7E7E7" d="M1047.9,633.3c-183.5,2.5-367,4.9-550.4,7.3
			c-32.9-62.2-65.9-124.4-98.8-186.5c137.6,3.6,275.2,7.1,412.8,10.7C890.3,521,969.1,577.2,1047.9,633.3z"/>
		<path fill-rule="evenodd" clip-rule="evenodd" fill="#E6E6E6" d="M1047.9,633.3c-182.1,2.3-364.1,4.5-546.2,6.8
			c-33.1-62-66.2-124-99.3-186c136.3,3.6,272.7,7.2,409,10.7C890.3,521,969.1,577.2,1047.9,633.3z"/>
		<path fill-rule="evenodd" clip-rule="evenodd" fill="#E5E5E5" d="M1047.9,633.3c-180.6,2.1-361.3,4.1-541.9,6.2
			c-33.3-61.8-66.5-123.7-99.8-185.5c135.1,3.6,270.2,7.2,405.3,10.8C890.3,521,969.1,577.2,1047.9,633.3z"/>
		<path fill-rule="evenodd" clip-rule="evenodd" fill="#E4E4E4" d="M1047.9,633.3c-179.2,1.9-358.4,3.7-537.7,5.6
			c-33.4-61.7-66.9-123.3-100.3-185c133.8,3.6,267.7,7.3,401.5,10.9C890.3,521,969.1,577.2,1047.9,633.3z"/>
		<path fill-rule="evenodd" clip-rule="evenodd" fill="#E3E3E3" d="M1047.9,633.3c-177.8,1.7-355.6,3.3-533.4,5
			c-33.6-61.5-67.2-123-100.8-184.5c132.6,3.7,265.2,7.3,397.8,11C890.3,521,969.1,577.2,1047.9,633.3z"/>
		<path fill-rule="evenodd" clip-rule="evenodd" fill="#E2E2E2" d="M1047.9,633.3c-176.4,1.5-352.8,2.9-529.1,4.4
			c-33.8-61.3-67.5-122.7-101.3-184c131.3,3.7,262.7,7.4,394,11.1C890.3,521,969.1,577.2,1047.9,633.3z"/>
		<path fill-rule="evenodd" clip-rule="evenodd" fill="#E1E1E1" d="M1047.9,633.3c-175,1.3-349.9,2.5-524.9,3.8
			c-33.9-61.2-67.9-122.3-101.8-183.5c130.1,3.7,260.2,7.4,390.3,11.1C890.3,521,969.1,577.2,1047.9,633.3z"/>
		<path fill-rule="evenodd" clip-rule="evenodd" fill="#E0E0E0" d="M1047.9,633.3c-173.5,1.1-347.1,2.2-520.6,3.2
			c-34.1-61-68.2-122-102.3-183c128.8,3.7,257.7,7.5,386.5,11.2C890.3,521,969.1,577.2,1047.9,633.3z"/>
		<path fill-rule="evenodd" clip-rule="evenodd" fill="#DEDEDE" d="M1047.9,633.3c-172.1,0.9-344.3,1.8-516.4,2.6
			c-34.3-60.8-68.5-121.6-102.8-182.5c127.6,3.8,255.2,7.5,382.7,11.3C890.3,521,969.1,577.2,1047.9,633.3z"/>
		<path fill-rule="evenodd" clip-rule="evenodd" fill="#DDDDDD" d="M1047.9,633.3c-170.7,0.7-341.4,1.4-512.1,2.1
			c-34.4-60.7-68.9-121.3-103.3-181.9c126.3,3.8,252.7,7.6,379,11.4C890.3,521,969.1,577.2,1047.9,633.3z"/>
		<path fill-rule="evenodd" clip-rule="evenodd" fill="#DCDCDC" d="M1047.9,633.3c-169.3,0.5-338.6,1-507.9,1.5
			c-34.6-60.5-69.2-121-103.8-181.4c125.1,3.8,250.2,7.6,375.2,11.4C890.3,521,969.1,577.2,1047.9,633.3z"/>
		<path fill-rule="evenodd" clip-rule="evenodd" fill="#DBDBDB" d="M1047.9,633.3c-167.9,0.3-335.7,0.6-503.6,0.9
			c-34.8-60.3-69.5-120.6-104.3-180.9c123.8,3.8,247.7,7.7,371.5,11.5C890.3,521,969.1,577.2,1047.9,633.3z"/>
		<path fill-rule="evenodd" clip-rule="evenodd" fill="#DADADA" d="M1047.9,633.3c-166.5,0.1-332.9,0.2-499.4,0.3
			c-34.9-60.1-69.9-120.3-104.8-180.4c122.6,3.9,245.1,7.7,367.7,11.6C890.3,521,969.1,577.2,1047.9,633.3z"/>
		<path fill-rule="evenodd" clip-rule="evenodd" fill="#D9D9D9" d="M1047.9,633.3c-165-0.1-330.1-0.2-495.1-0.3
			c-35.1-60-70.2-119.9-105.3-179.9c121.3,3.9,242.6,7.8,364,11.7C890.3,521,969.1,577.2,1047.9,633.3z"/>
		<path fill-rule="evenodd" clip-rule="evenodd" fill="#D8D8D8" d="M1047.9,633.3c-163.6-0.3-327.2-0.6-490.8-0.9
			c-35.3-59.8-70.5-119.6-105.8-179.4c120.1,3.9,240.1,7.8,360.2,11.8C890.3,521,969.1,577.2,1047.9,633.3z"/>
		<path fill-rule="evenodd" clip-rule="evenodd" fill="#D7D7D7" d="M1047.9,633.3c-162.2-0.5-324.4-1-486.6-1.5
			C525.9,572.2,490.5,512.6,455,453c118.8,3.9,237.6,7.9,356.5,11.8C890.3,521,969.1,577.2,1047.9,633.3z"/>
		<path fill-rule="evenodd" clip-rule="evenodd" fill="#D6D6D6" d="M1047.9,633.3c-160.8-0.7-321.6-1.4-482.3-2.1
			c-35.6-59.5-71.2-118.9-106.8-178.4c117.6,4,235.1,7.9,352.7,11.9C890.3,521,969.1,577.2,1047.9,633.3z"/>
		<path fill-rule="evenodd" clip-rule="evenodd" fill="#D5D5D5" d="M1047.9,633.3c-159.4-0.9-318.7-1.8-478.1-2.6
			c-35.8-59.3-71.5-118.6-107.3-177.9c116.3,4,232.6,8,348.9,12C890.3,521,969.1,577.2,1047.9,633.3z"/>
		<path fill-rule="evenodd" clip-rule="evenodd" fill="#D4D4D4" d="M1047.9,633.3c-157.9-1.1-315.9-2.2-473.8-3.2
			c-35.9-59.1-71.9-118.2-107.8-177.4c115.1,4,230.1,8,345.2,12.1C890.3,521,969.1,577.2,1047.9,633.3z"/>
		<path fill-rule="evenodd" clip-rule="evenodd" fill="#D3D3D3" d="M1047.9,633.3c-156.5-1.3-313-2.5-469.6-3.8
			c-36.1-58.9-72.2-117.9-108.3-176.8c113.8,4,227.6,8.1,341.4,12.1C890.3,521,969.1,577.2,1047.9,633.3z"/>
		<path fill-rule="evenodd" clip-rule="evenodd" fill="#D2D2D2" d="M1047.9,633.3c-155.1-1.5-310.2-2.9-465.3-4.4
			c-36.3-58.8-72.5-117.6-108.8-176.3c112.6,4.1,225.1,8.1,337.7,12.2C890.3,521,969.1,577.2,1047.9,633.3z"/>
		<path fill-rule="evenodd" clip-rule="evenodd" fill="#D1D1D1" d="M1047.9,633.3c-153.7-1.7-307.4-3.3-461-5
			c-36.4-58.6-72.9-117.2-109.3-175.8c111.3,4.1,222.6,8.2,333.9,12.3C890.3,521,969.1,577.2,1047.9,633.3z"/>
		<path fill-rule="evenodd" clip-rule="evenodd" fill="#D0D0D0" d="M1047.9,633.3c-152.3-1.9-304.5-3.7-456.8-5.6
			c-36.6-58.4-73.2-116.9-109.8-175.3c110.1,4.1,220.1,8.3,330.2,12.4C890.3,521,969.1,577.2,1047.9,633.3z"/>
		<path fill-rule="evenodd" clip-rule="evenodd" fill="#CFCFCF" d="M1047.9,633.3c-150.8-2.1-301.7-4.1-452.5-6.2
			c-36.8-58.3-73.6-116.5-110.3-174.8c108.8,4.1,217.6,8.3,326.4,12.5C890.3,521,969.1,577.2,1047.9,633.3z"/>
		<path fill-rule="evenodd" clip-rule="evenodd" fill="#CECECE" d="M1047.9,633.3c-149.4-2.3-298.9-4.5-448.3-6.8
			c-36.9-58.1-73.9-116.2-110.8-174.3c107.6,4.2,215.1,8.4,322.7,12.5C890.3,521,969.1,577.2,1047.9,633.3z"/>
		<path fill-rule="evenodd" clip-rule="evenodd" fill="#CDCDCD" d="M1047.9,633.3c-148-2.5-296-4.9-444-7.3
			c-37.1-57.9-74.2-115.9-111.3-173.8c106.3,4.2,212.6,8.4,318.9,12.6C890.3,521,969.1,577.2,1047.9,633.3z"/>
		<path fill-rule="evenodd" clip-rule="evenodd" fill="#CCCCCC" d="M1047.9,633.3c-146.6-2.6-293.2-5.3-439.8-7.9
			c-37.3-57.8-74.6-115.5-111.8-173.3c105,4.2,210.1,8.5,315.1,12.7C890.3,521,969.1,577.2,1047.9,633.3z"/>
		<path fill-rule="evenodd" clip-rule="evenodd" fill="#CBCBCB" d="M1047.9,633.3c-145.2-2.8-290.3-5.7-435.5-8.5
			c-37.4-57.6-74.9-115.2-112.3-172.8c103.8,4.3,207.6,8.5,311.4,12.8C890.3,521,969.1,577.2,1047.9,633.3z"/>
		<path fill-rule="evenodd" clip-rule="evenodd" fill="#CACACA" d="M1047.9,633.3c-143.8-3-287.5-6.1-431.3-9.1
			c-37.6-57.4-75.2-114.8-112.8-172.3c102.5,4.3,205.1,8.6,307.6,12.8C890.3,521,969.1,577.2,1047.9,633.3z"/>
		<path fill-rule="evenodd" clip-rule="evenodd" fill="#C9C9C9" d="M1047.9,633.3c-142.3-3.2-284.7-6.5-427-9.7
			c-37.8-57.2-75.6-114.5-113.3-171.7c101.3,4.3,202.6,8.6,303.9,12.9C890.3,521,969.1,577.2,1047.9,633.3z"/>
		<path fill-rule="evenodd" clip-rule="evenodd" fill="#C8C8C8" d="M1047.9,633.3c-140.9-3.4-281.8-6.9-422.7-10.3
			c-37.9-57.1-75.9-114.2-113.8-171.2c100,4.3,200.1,8.7,300.1,13C890.3,521,969.1,577.2,1047.9,633.3z"/>
		<path fill-rule="evenodd" clip-rule="evenodd" fill="#C7C7C7" d="M1047.9,633.3c-139.5-3.6-279-7.2-418.5-10.9
			c-38.1-56.9-76.2-113.8-114.3-170.7c98.8,4.4,197.6,8.7,296.4,13.1C890.3,521,969.1,577.2,1047.9,633.3z"/>
		<path fill-rule="evenodd" clip-rule="evenodd" fill="#C6C6C6" d="M1047.9,633.3c-138.1-3.8-276.2-7.6-414.2-11.5
			c-38.3-56.7-76.6-113.5-114.8-170.2c97.5,4.4,195.1,8.8,292.6,13.1C890.3,521,969.1,577.2,1047.9,633.3z"/>
		<path fill-rule="evenodd" clip-rule="evenodd" fill="#C5C5C5" d="M1047.9,633.3c-136.7-4-273.3-8-410-12
			c-38.4-56.6-76.9-113.1-115.3-169.7c96.3,4.4,192.6,8.8,288.9,13.2C890.3,521,969.1,577.2,1047.9,633.3z"/>
		<path fill-rule="evenodd" clip-rule="evenodd" fill="#C4C4C4" d="M1047.9,633.3c-135.2-4.2-270.5-8.4-405.7-12.6
			c-38.6-56.4-77.2-112.8-115.8-169.2c95,4.4,190.1,8.9,285.1,13.3C890.3,521,969.1,577.2,1047.9,633.3z"/>
		<path fill-rule="evenodd" clip-rule="evenodd" fill="#C2C2C2" d="M1047.9,633.3c-133.8-4.4-267.6-8.8-401.5-13.2
			c-38.8-56.2-77.6-112.5-116.3-168.7c93.8,4.5,187.6,8.9,281.3,13.4C890.3,521,969.1,577.2,1047.9,633.3z"/>
		<path fill-rule="evenodd" clip-rule="evenodd" fill="#C1C1C1" d="M1047.9,633.3c-132.4-4.6-264.8-9.2-397.2-13.8
			c-38.9-56.1-77.9-112.1-116.8-168.2c92.5,4.5,185.1,9,277.6,13.5C890.3,521,969.1,577.2,1047.9,633.3z"/>
		<path fill-rule="evenodd" clip-rule="evenodd" fill="#C0C0C0" d="M1047.9,633.3c-131-4.8-262-9.6-392.9-14.4
			c-39.1-55.9-78.2-111.8-117.3-167.7c91.3,4.5,182.6,9,273.8,13.5C890.3,521,969.1,577.2,1047.9,633.3z"/>
		<path fill-rule="evenodd" clip-rule="evenodd" fill="#BFBFBF" d="M1047.9,633.3c-129.6-5-259.1-10-388.7-15
			c-39.3-55.7-78.6-111.4-117.8-167.1c90,4.5,180.1,9.1,270.1,13.6C890.3,521,969.1,577.2,1047.9,633.3z"/>
		<path fill-rule="evenodd" clip-rule="evenodd" fill="#BEBEBE" d="M1047.9,633.3c-128.1-5.2-256.3-10.4-384.4-15.6
			c-39.4-55.5-78.9-111.1-118.3-166.6c88.8,4.6,177.6,9.1,266.3,13.7C890.3,521,969.1,577.2,1047.9,633.3z"/>
		<path fill-rule="evenodd" clip-rule="evenodd" fill="#BDBDBD" d="M1047.9,633.3c-126.7-5.4-253.4-10.8-380.2-16.2
			c-39.6-55.4-79.2-110.8-118.8-166.1c87.5,4.6,175,9.2,262.6,13.8C890.3,521,969.1,577.2,1047.9,633.3z"/>
		<path fill-rule="evenodd" clip-rule="evenodd" fill="#BCBCBC" d="M1047.9,633.3c-125.3-5.6-250.6-11.2-375.9-16.8
			c-39.8-55.2-79.6-110.4-119.3-165.6c86.3,4.6,172.5,9.2,258.8,13.8C890.3,521,969.1,577.2,1047.9,633.3z"/>
		<path fill-rule="evenodd" clip-rule="evenodd" fill="#BBBBBB" d="M1047.9,633.3C924,627.6,800.2,621.8,676.3,616
			c-39.9-55-79.9-110.1-119.9-165.1c85,4.6,170,9.3,255.1,13.9C890.3,521,969.1,577.2,1047.9,633.3z"/>
		<path fill-rule="evenodd" clip-rule="evenodd" fill="#BABABA" d="M1047.9,633.3c-122.5-6-244.9-12-367.4-17.9
			c-40.1-54.9-80.2-109.7-120.4-164.6c83.8,4.7,167.5,9.3,251.3,14C890.3,521,969.1,577.2,1047.9,633.3z"/>
		<path fill-rule="evenodd" clip-rule="evenodd" fill="#B9B9B9" d="M1047.9,633.3c-121-6.2-242.1-12.3-363.1-18.5
			c-40.3-54.7-80.6-109.4-120.9-164.1c82.5,4.7,165,9.4,247.6,14.1C890.3,521,969.1,577.2,1047.9,633.3z"/>
		<path fill-rule="evenodd" clip-rule="evenodd" fill="#B8B8B8" d="M1047.9,633.3C928.3,627,808.7,620.6,689,614.2
			c-40.5-54.5-80.9-109-121.4-163.6c81.3,4.7,162.5,9.4,243.8,14.2C890.3,521,969.1,577.2,1047.9,633.3z"/>
		<path fill-rule="evenodd" clip-rule="evenodd" fill="#B7B7B7" d="M1047.9,633.3c-118.2-6.6-236.4-13.1-354.6-19.7
			c-40.6-54.4-81.2-108.7-121.9-163.1c80,4.7,160,9.5,240,14.2C890.3,521,969.1,577.2,1047.9,633.3z"/>
		<path fill-rule="evenodd" clip-rule="evenodd" fill="#B6B6B6" d="M1047.9,633.3c-116.8-6.8-233.6-13.5-350.4-20.3
			c-40.8-54.2-81.6-108.4-122.4-162.6c78.8,4.8,157.5,9.5,236.3,14.3C890.3,521,969.1,577.2,1047.9,633.3z"/>
		<path fill-rule="evenodd" clip-rule="evenodd" fill="#B5B5B5" d="M1047.9,633.3c-115.4-7-230.7-13.9-346.1-20.9
			c-41-54-81.9-108-122.9-162c77.5,4.8,155,9.6,232.5,14.4C890.3,521,969.1,577.2,1047.9,633.3z"/>
		<path fill-rule="evenodd" clip-rule="evenodd" fill="#B4B4B4" d="M1047.9,633.3C934,626.2,820,619,706.1,611.9
			c-41.1-53.8-82.2-107.7-123.4-161.5c76.3,4.8,152.5,9.6,228.8,14.5C890.3,521,969.1,577.2,1047.9,633.3z"/>
		<path fill-rule="evenodd" clip-rule="evenodd" fill="#B3B3B3" d="M1047.9,633.3c-112.5-7.3-225.1-14.7-337.6-22
			c-41.3-53.7-82.6-107.3-123.9-161c75,4.8,150,9.7,225,14.5C890.3,521,969.1,577.2,1047.9,633.3z"/>
		<path fill-rule="evenodd" clip-rule="evenodd" fill="#B2B2B2" d="M1047.9,633.3c-111.1-7.5-222.2-15.1-333.4-22.6
			c-41.5-53.5-82.9-107-124.4-160.5c73.8,4.9,147.5,9.7,221.3,14.6C890.3,521,969.1,577.2,1047.9,633.3z"/>
		<path fill-rule="evenodd" clip-rule="evenodd" fill="#B1B1B1" d="M1047.9,633.3c-109.7-7.7-219.4-15.5-329.1-23.2
			c-41.6-53.3-83.2-106.7-124.9-160c72.5,4.9,145,9.8,217.5,14.7C890.3,521,969.1,577.2,1047.9,633.3z"/>
		<path fill-rule="evenodd" clip-rule="evenodd" fill="#B0B0B0" d="M1047.9,633.3c-108.3-7.9-216.6-15.9-324.8-23.8
			c-41.8-53.2-83.6-106.3-125.4-159.5c71.3,4.9,142.5,9.9,213.8,14.8C890.3,521,969.1,577.2,1047.9,633.3z"/>
		<path fill-rule="evenodd" clip-rule="evenodd" fill="#AFAFAF" d="M1047.9,633.3c-106.9-8.1-213.7-16.3-320.6-24.4
			c-42-53-83.9-106-125.9-159c70,5,140,9.9,210,14.9C890.3,521,969.1,577.2,1047.9,633.3z"/>
		<path fill-rule="evenodd" clip-rule="evenodd" fill="#AEAEAE" d="M1047.9,633.3c-105.4-8.3-210.9-16.7-316.3-25
			c-42.1-52.8-84.2-105.6-126.4-158.5c68.7,5,137.5,10,206.2,14.9C890.3,521,969.1,577.2,1047.9,633.3z"/>
		<path fill-rule="evenodd" clip-rule="evenodd" fill="#ADADAD" d="M1047.9,633.3c-104-8.5-208-17-312.1-25.6
			c-42.3-52.7-84.6-105.3-126.9-158c67.5,5,135,10,202.5,15C890.3,521,969.1,577.2,1047.9,633.3z"/>
		<path fill-rule="evenodd" clip-rule="evenodd" fill="#ACACAC" d="M1047.9,633.3c-102.6-8.7-205.2-17.4-307.8-26.2
			c-42.5-52.5-84.9-105-127.4-157.5c66.2,5,132.5,10.1,198.7,15.1C890.3,521,969.1,577.2,1047.9,633.3z"/>
		<path fill-rule="evenodd" clip-rule="evenodd" fill="#ABABAB" d="M1047.9,633.3c-101.2-8.9-202.4-17.8-303.6-26.7
			c-42.6-52.3-85.2-104.6-127.9-156.9c65,5.1,130,10.1,195,15.2C890.3,521,969.1,577.2,1047.9,633.3z"/>
		<path fill-rule="evenodd" clip-rule="evenodd" fill="#AAAAAA" d="M1047.9,633.3c-99.8-9.1-199.5-18.2-299.3-27.3
			c-42.8-52.1-85.6-104.3-128.4-156.4c63.7,5.1,127.5,10.2,191.2,15.2C890.3,521,969.1,577.2,1047.9,633.3z"/>
		<path fill-rule="evenodd" clip-rule="evenodd" fill="#A9A9A9" d="M1047.9,633.3c-98.3-9.3-196.7-18.6-295-27.9
			c-43-52-85.9-103.9-128.9-155.9c62.5,5.1,125,10.2,187.5,15.3C890.3,521,969.1,577.2,1047.9,633.3z"/>
		<path fill-rule="evenodd" clip-rule="evenodd" fill="#A8A8A8" d="M1047.9,633.3c-96.9-9.5-193.9-19-290.8-28.5
			C714,553,670.9,501.2,627.8,449.4c61.2,5.1,122.5,10.3,183.7,15.4C890.3,521,969.1,577.2,1047.9,633.3z"/>
		<path fill-rule="evenodd" clip-rule="evenodd" fill="#A6A6A6" d="M1047.9,633.3c-95.5-9.7-191-19.4-286.5-29.1
			c-43.3-51.6-86.6-103.3-129.9-154.9c60,5.2,120,10.3,180,15.5C890.3,521,969.1,577.2,1047.9,633.3z"/>
		<path fill-rule="evenodd" clip-rule="evenodd" fill="#A5A5A5" d="M1047.9,633.3c-94.1-9.9-188.2-19.8-282.3-29.7
			c-43.5-51.5-86.9-102.9-130.4-154.4c58.7,5.2,117.5,10.4,176.2,15.6C890.3,521,969.1,577.2,1047.9,633.3z"/>
		<path fill-rule="evenodd" clip-rule="evenodd" fill="#A4A4A4" d="M1047.9,633.3c-92.7-10.1-185.3-20.2-278-30.3
			c-43.6-51.3-87.3-102.6-130.9-153.9c57.5,5.2,115,10.4,172.4,15.6C890.3,521,969.1,577.2,1047.9,633.3z"/>
		<path fill-rule="evenodd" clip-rule="evenodd" fill="#A3A3A3" d="M1047.9,633.3c-91.3-10.3-182.5-20.6-273.8-30.9
			c-43.8-51.1-87.6-102.2-131.4-153.4c56.2,5.2,112.5,10.5,168.7,15.7C890.3,521,969.1,577.2,1047.9,633.3z"/>
		<path fill-rule="evenodd" clip-rule="evenodd" fill="#A2A2A2" d="M1047.9,633.3c-89.8-10.5-179.7-21-269.5-31.4
			c-44-51-87.9-101.9-131.9-152.9c55,5.3,110,10.5,164.9,15.8C890.3,521,969.1,577.2,1047.9,633.3z"/>
		<path fill-rule="evenodd" clip-rule="evenodd" fill="#A1A1A1" d="M1047.9,633.3c-88.4-10.7-176.8-21.4-265.3-32
			c-44.1-50.8-88.3-101.6-132.4-152.3c53.7,5.3,107.5,10.6,161.2,15.9C890.3,521,969.1,577.2,1047.9,633.3z"/>
		<path fill-rule="evenodd" clip-rule="evenodd" fill="#A0A0A0" d="M1047.9,633.3c-87-10.9-174-21.7-261-32.6
			c-44.3-50.6-88.6-101.2-132.9-151.8c52.5,5.3,105,10.6,157.4,15.9C890.3,521,969.1,577.2,1047.9,633.3z"/>
		<path fill-rule="evenodd" clip-rule="evenodd" fill="#9F9F9F" d="M1047.9,633.3c-85.6-11.1-171.2-22.1-256.7-33.2
			c-44.5-50.4-88.9-100.9-133.4-151.3c51.2,5.3,102.4,10.7,153.7,16C890.3,521,969.1,577.2,1047.9,633.3z"/>
		<path fill-rule="evenodd" clip-rule="evenodd" fill="#9E9E9E" d="M1047.9,633.3c-84.2-11.3-168.3-22.5-252.5-33.8
			c-44.6-50.3-89.3-100.5-133.9-150.8c50,5.4,99.9,10.7,149.9,16.1C890.3,521,969.1,577.2,1047.9,633.3z"/>
		<path fill-rule="evenodd" clip-rule="evenodd" fill="#9D9D9D" d="M1047.9,633.3c-82.7-11.5-165.5-22.9-248.2-34.4
			c-44.8-50.1-89.6-100.2-134.4-150.3c48.7,5.4,97.4,10.8,146.2,16.2C890.3,521,969.1,577.2,1047.9,633.3z"/>
		<path fill-rule="evenodd" clip-rule="evenodd" fill="#9C9C9C" d="M1047.9,633.3c-81.3-11.7-162.6-23.3-244-35
			c-45-49.9-89.9-99.9-134.9-149.8c47.5,5.4,94.9,10.8,142.4,16.2C890.3,521,969.1,577.2,1047.9,633.3z"/>
		<path fill-rule="evenodd" clip-rule="evenodd" fill="#9B9B9B" d="M1047.9,633.3c-79.9-11.9-159.8-23.7-239.7-35.6
			C763.1,548,718,498.3,672.8,448.5c46.2,5.4,92.4,10.9,138.7,16.3C890.3,521,969.1,577.2,1047.9,633.3z"/>
		<path fill-rule="evenodd" clip-rule="evenodd" fill="#9A9A9A" d="M1047.9,633.3c-78.5-12.1-157-24.1-235.5-36.1
			c-45.3-49.6-90.6-99.2-135.9-148.8c45,5.5,89.9,10.9,134.9,16.4C890.3,521,969.1,577.2,1047.9,633.3z"/>
		<polygon fill-rule="evenodd" clip-rule="evenodd" fill="#999999" points="1047.9,633.3 816.7,596.6 680.3,448.3 811.5,464.8 		"/>
	</g>
	<g>
		<polygon fill-rule="evenodd" clip-rule="evenodd" fill="#EDEDED" points="484.6,645.9 168.9,654.9 233.3,532.4 460.7,537.5 		"/>
		<path fill-rule="evenodd" clip-rule="evenodd" fill="#ECECEC" d="M484.6,645.9c-104.4,2.9-208.7,5.8-313.1,8.6
			c21.3-40.7,42.5-81.4,63.8-122.2c75.1,1.7,150.2,3.4,225.3,5.2C468.7,573.7,476.6,609.8,484.6,645.9z"/>
		<path fill-rule="evenodd" clip-rule="evenodd" fill="#EBEBEB" d="M484.6,645.9c-103.5,2.8-207,5.5-310.4,8.2
			c21.1-40.6,42.1-81.2,63.2-121.8c74.4,1.7,148.8,3.5,223.2,5.2C468.7,573.7,476.6,609.8,484.6,645.9z"/>
		<path fill-rule="evenodd" clip-rule="evenodd" fill="#EAEAEA" d="M484.6,645.9c-102.6,2.6-205.2,5.2-307.8,7.9
			c20.9-40.5,41.8-81,62.6-121.5c73.7,1.8,147.4,3.5,221.2,5.3C468.7,573.7,476.6,609.8,484.6,645.9z"/>
		<path fill-rule="evenodd" clip-rule="evenodd" fill="#E9E9E9" d="M484.6,645.9c-101.7,2.5-203.4,5-305.1,7.5
			c20.7-40.4,41.4-80.8,62.1-121.2c73,1.8,146.1,3.6,219.1,5.4C468.7,573.7,476.6,609.8,484.6,645.9z"/>
		<path fill-rule="evenodd" clip-rule="evenodd" fill="#E8E8E8" d="M484.6,645.9c-100.8,2.4-201.7,4.7-302.5,7.1
			c20.5-40.3,41-80.6,61.5-120.8c72.4,1.8,144.7,3.6,217.1,5.4C468.7,573.7,476.6,609.8,484.6,645.9z"/>
		<path fill-rule="evenodd" clip-rule="evenodd" fill="#E7E7E7" d="M484.6,645.9c-100,2.2-199.9,4.4-299.9,6.7
			c20.3-40.2,40.6-80.3,60.9-120.5c71.7,1.8,143.3,3.7,215,5.5C468.7,573.7,476.6,609.8,484.6,645.9z"/>
		<path fill-rule="evenodd" clip-rule="evenodd" fill="#E6E6E6" d="M484.6,645.9c-99.1,2.1-198.1,4.2-297.2,6.3
			c20.1-40.1,40.2-80.1,60.3-120.2c71,1.8,142,3.7,212.9,5.5C468.7,573.7,476.6,609.8,484.6,645.9z"/>
		<path fill-rule="evenodd" clip-rule="evenodd" fill="#E5E5E5" d="M484.6,645.9c-98.2,2-196.4,3.9-294.6,5.9
			c19.9-39.9,39.8-79.9,59.7-119.8c70.3,1.9,140.6,3.7,210.9,5.6C468.7,573.7,476.6,609.8,484.6,645.9z"/>
		<path fill-rule="evenodd" clip-rule="evenodd" fill="#E4E4E4" d="M484.6,645.9c-97.3,1.8-194.6,3.7-291.9,5.5
			c19.7-39.8,39.4-79.7,59.2-119.5c69.6,1.9,139.2,3.8,208.8,5.7C468.7,573.7,476.6,609.8,484.6,645.9z"/>
		<path fill-rule="evenodd" clip-rule="evenodd" fill="#E3E3E3" d="M484.6,645.9c-96.4,1.7-192.9,3.4-289.3,5.1
			c19.5-39.7,39-79.4,58.6-119.2c68.9,1.9,137.8,3.8,206.7,5.7C468.7,573.7,476.6,609.8,484.6,645.9z"/>
		<path fill-rule="evenodd" clip-rule="evenodd" fill="#E2E2E2" d="M484.6,645.9c-95.5,1.6-191.1,3.1-286.6,4.7
			c19.3-39.6,38.7-79.2,58-118.8c68.2,1.9,136.5,3.9,204.7,5.8C468.7,573.7,476.6,609.8,484.6,645.9z"/>
		<path fill-rule="evenodd" clip-rule="evenodd" fill="#E1E1E1" d="M484.6,645.9c-94.7,1.4-189.3,2.9-284,4.3
			c19.1-39.5,38.3-79,57.4-118.5c67.5,2,135.1,3.9,202.6,5.9C468.7,573.7,476.6,609.8,484.6,645.9z"/>
		<path fill-rule="evenodd" clip-rule="evenodd" fill="#E0E0E0" d="M484.6,645.9c-93.8,1.3-187.6,2.6-281.4,3.9
			c18.9-39.4,37.9-78.8,56.8-118.2c66.9,2,133.7,4,200.6,5.9C468.7,573.7,476.6,609.8,484.6,645.9z"/>
		<path fill-rule="evenodd" clip-rule="evenodd" fill="#DEDEDE" d="M484.6,645.9c-92.9,1.2-185.8,2.3-278.7,3.5
			c18.8-39.3,37.5-78.6,56.2-117.8c66.2,2,132.3,4,198.5,6C468.7,573.7,476.6,609.8,484.6,645.9z"/>
		<path fill-rule="evenodd" clip-rule="evenodd" fill="#DDDDDD" d="M484.6,645.9c-92,1-184,2.1-276.1,3.1
			c18.6-39.2,37.1-78.3,55.7-117.5c65.5,2,131,4,196.4,6.1C468.7,573.7,476.6,609.8,484.6,645.9z"/>
		<path fill-rule="evenodd" clip-rule="evenodd" fill="#DCDCDC" d="M484.6,645.9c-91.1,0.9-182.3,1.8-273.4,2.7
			c18.4-39.1,36.7-78.1,55.1-117.2c64.8,2,129.6,4.1,194.4,6.1C468.7,573.7,476.6,609.8,484.6,645.9z"/>
		<path fill-rule="evenodd" clip-rule="evenodd" fill="#DBDBDB" d="M484.6,645.9c-90.3,0.8-180.5,1.5-270.8,2.3
			c18.2-38.9,36.3-77.9,54.5-116.8c64.1,2.1,128.2,4.1,192.3,6.2C468.7,573.7,476.6,609.8,484.6,645.9z"/>
		<path fill-rule="evenodd" clip-rule="evenodd" fill="#DADADA" d="M484.6,645.9c-89.4,0.6-178.8,1.3-268.1,1.9
			c18-38.8,35.9-77.7,53.9-116.5c63.4,2.1,126.8,4.2,190.2,6.2C468.7,573.7,476.6,609.8,484.6,645.9z"/>
		<path fill-rule="evenodd" clip-rule="evenodd" fill="#D9D9D9" d="M484.6,645.9c-88.5,0.5-177,1-265.5,1.5
			c17.8-38.7,35.6-77.5,53.3-116.2c62.7,2.1,125.5,4.2,188.2,6.3C468.7,573.7,476.6,609.8,484.6,645.9z"/>
		<path fill-rule="evenodd" clip-rule="evenodd" fill="#D8D8D8" d="M484.6,645.9c-87.6,0.4-175.2,0.8-262.9,1.1
			c17.6-38.6,35.2-77.2,52.8-115.9c62,2.1,124.1,4.2,186.1,6.4C468.7,573.7,476.6,609.8,484.6,645.9z"/>
		<path fill-rule="evenodd" clip-rule="evenodd" fill="#D7D7D7" d="M484.6,645.9c-86.7,0.2-173.5,0.5-260.2,0.7
			c17.4-38.5,34.8-77,52.2-115.5c61.4,2.1,122.7,4.3,184.1,6.4C468.7,573.7,476.6,609.8,484.6,645.9z"/>
		<path fill-rule="evenodd" clip-rule="evenodd" fill="#D6D6D6" d="M484.6,645.9c-85.9,0.1-171.7,0.2-257.6,0.3
			c17.2-38.4,34.4-76.8,51.6-115.2c60.7,2.2,121.3,4.3,182,6.5C468.7,573.7,476.6,609.8,484.6,645.9z"/>
		<path fill-rule="evenodd" clip-rule="evenodd" fill="#D5D5D5" d="M484.6,645.9c-85,0-169.9,0-254.9-0.1c17-38.3,34-76.6,51-114.9
			c60,2.2,120,4.4,179.9,6.6C468.7,573.7,476.6,609.8,484.6,645.9z"/>
		<path fill-rule="evenodd" clip-rule="evenodd" fill="#D4D4D4" d="M484.6,645.9c-84.1-0.2-168.2-0.3-252.3-0.5
			c16.8-38.2,33.6-76.3,50.4-114.5c59.3,2.2,118.6,4.4,177.9,6.6C468.7,573.7,476.6,609.8,484.6,645.9z"/>
		<path fill-rule="evenodd" clip-rule="evenodd" fill="#D3D3D3" d="M484.6,645.9c-83.2-0.3-166.4-0.6-249.6-0.8
			c16.6-38.1,33.2-76.1,49.9-114.2c58.6,2.2,117.2,4.5,175.8,6.7C468.7,573.7,476.6,609.8,484.6,645.9z"/>
		<path fill-rule="evenodd" clip-rule="evenodd" fill="#D2D2D2" d="M484.6,645.9c-82.3-0.4-164.7-0.8-247-1.2
			c16.4-38,32.9-75.9,49.3-113.9c57.9,2.2,115.8,4.5,173.7,6.7C468.7,573.7,476.6,609.8,484.6,645.9z"/>
		<path fill-rule="evenodd" clip-rule="evenodd" fill="#D1D1D1" d="M484.6,645.9c-81.5-0.5-162.9-1.1-244.4-1.6
			c16.2-37.8,32.5-75.7,48.7-113.5c57.2,2.3,114.5,4.5,171.7,6.8C468.7,573.7,476.6,609.8,484.6,645.9z"/>
		<path fill-rule="evenodd" clip-rule="evenodd" fill="#D0D0D0" d="M484.6,645.9c-80.6-0.7-161.1-1.4-241.7-2
			c16-37.7,32.1-75.5,48.1-113.2c56.5,2.3,113.1,4.6,169.6,6.9C468.7,573.7,476.6,609.8,484.6,645.9z"/>
		<path fill-rule="evenodd" clip-rule="evenodd" fill="#CFCFCF" d="M484.6,645.9c-79.7-0.8-159.4-1.6-239.1-2.4
			c15.8-37.6,31.7-75.2,47.5-112.9c55.9,2.3,111.7,4.6,167.6,6.9C468.7,573.7,476.6,609.8,484.6,645.9z"/>
		<path fill-rule="evenodd" clip-rule="evenodd" fill="#CECECE" d="M484.6,645.9c-78.8-0.9-157.6-1.9-236.4-2.8
			c15.7-37.5,31.3-75,47-112.5c55.2,2.3,110.3,4.7,165.5,7C468.7,573.7,476.6,609.8,484.6,645.9z"/>
		<path fill-rule="evenodd" clip-rule="evenodd" fill="#CDCDCD" d="M484.6,645.9c-77.9-1.1-155.9-2.1-233.8-3.2
			c15.5-37.4,30.9-74.8,46.4-112.2c54.5,2.4,109,4.7,163.4,7.1C468.7,573.7,476.6,609.8,484.6,645.9z"/>
		<path fill-rule="evenodd" clip-rule="evenodd" fill="#CCCCCC" d="M484.6,645.9c-77-1.2-154.1-2.4-231.1-3.6
			c15.3-37.3,30.5-74.6,45.8-111.9c53.8,2.4,107.6,4.8,161.4,7.1C468.7,573.7,476.6,609.8,484.6,645.9z"/>
		<path fill-rule="evenodd" clip-rule="evenodd" fill="#CBCBCB" d="M484.6,645.9c-76.2-1.3-152.3-2.7-228.5-4
			c15.1-37.2,30.1-74.4,45.2-111.5c53.1,2.4,106.2,4.8,159.3,7.2C468.7,573.7,476.6,609.8,484.6,645.9z"/>
		<path fill-rule="evenodd" clip-rule="evenodd" fill="#CACACA" d="M484.6,645.9c-75.3-1.5-150.6-2.9-225.9-4.4
			c14.9-37.1,29.8-74.1,44.6-111.2c52.4,2.4,104.8,4.8,157.2,7.3C468.7,573.7,476.6,609.8,484.6,645.9z"/>
		<path fill-rule="evenodd" clip-rule="evenodd" fill="#C9C9C9" d="M484.6,645.9c-74.4-1.6-148.8-3.2-223.2-4.8
			c14.7-37,29.4-73.9,44.1-110.9c51.7,2.4,103.5,4.9,155.2,7.3C468.7,573.7,476.6,609.8,484.6,645.9z"/>
		<path fill-rule="evenodd" clip-rule="evenodd" fill="#C8C8C8" d="M484.6,645.9c-73.5-1.7-147-3.5-220.6-5.2
			c14.5-36.8,29-73.7,43.5-110.5c51,2.5,102.1,4.9,153.1,7.4C468.7,573.7,476.6,609.8,484.6,645.9z"/>
		<path fill-rule="evenodd" clip-rule="evenodd" fill="#C7C7C7" d="M484.6,645.9c-72.6-1.9-145.3-3.7-217.9-5.6
			c14.3-36.7,28.6-73.5,42.9-110.2c50.4,2.5,100.7,5,151.1,7.4C468.7,573.7,476.6,609.8,484.6,645.9z"/>
		<path fill-rule="evenodd" clip-rule="evenodd" fill="#C6C6C6" d="M484.6,645.9c-71.8-2-143.5-4-215.3-6
			c14.1-36.6,28.2-73.2,42.3-109.9c49.7,2.5,99.3,5,149,7.5C468.7,573.7,476.6,609.8,484.6,645.9z"/>
		<path fill-rule="evenodd" clip-rule="evenodd" fill="#C5C5C5" d="M484.6,645.9c-70.9-2.1-141.8-4.3-212.6-6.4
			c13.9-36.5,27.8-73,41.7-109.5c49,2.5,98,5,146.9,7.6C468.7,573.7,476.6,609.8,484.6,645.9z"/>
		<path fill-rule="evenodd" clip-rule="evenodd" fill="#C4C4C4" d="M484.6,645.9c-70-2.3-140-4.5-210-6.8
			c13.7-36.4,27.4-72.8,41.2-109.2c48.3,2.5,96.6,5.1,144.9,7.6C468.7,573.7,476.6,609.8,484.6,645.9z"/>
		<path fill-rule="evenodd" clip-rule="evenodd" fill="#C2C2C2" d="M484.6,645.9c-69.1-2.4-138.2-4.8-207.4-7.2
			c13.5-36.3,27-72.6,40.6-108.9c47.6,2.6,95.2,5.1,142.8,7.7C468.7,573.7,476.6,609.8,484.6,645.9z"/>
		<path fill-rule="evenodd" clip-rule="evenodd" fill="#C1C1C1" d="M484.6,645.9c-68.2-2.5-136.5-5-204.7-7.6
			c13.3-36.2,26.7-72.4,40-108.5c46.9,2.6,93.8,5.2,140.7,7.8C468.7,573.7,476.6,609.8,484.6,645.9z"/>
		<path fill-rule="evenodd" clip-rule="evenodd" fill="#C0C0C0" d="M484.6,645.9c-67.4-2.7-134.7-5.3-202.1-8
			c13.1-36.1,26.3-72.1,39.4-108.2c46.2,2.6,92.5,5.2,138.7,7.8C468.7,573.7,476.6,609.8,484.6,645.9z"/>
		<path fill-rule="evenodd" clip-rule="evenodd" fill="#BFBFBF" d="M484.6,645.9c-66.5-2.8-132.9-5.6-199.4-8.4
			c12.9-36,25.9-71.9,38.8-107.9c45.5,2.6,91.1,5.3,136.6,7.9C468.7,573.7,476.6,609.8,484.6,645.9z"/>
		<path fill-rule="evenodd" clip-rule="evenodd" fill="#BEBEBE" d="M484.6,645.9c-65.6-2.9-131.2-5.8-196.8-8.8
			c12.7-35.8,25.5-71.7,38.2-107.5c44.9,2.6,89.7,5.3,134.6,7.9C468.7,573.7,476.6,609.8,484.6,645.9z"/>
		<path fill-rule="evenodd" clip-rule="evenodd" fill="#BDBDBD" d="M484.6,645.9c-64.7-3.1-129.4-6.1-194.1-9.2
			c12.6-35.7,25.1-71.5,37.7-107.2c44.2,2.7,88.3,5.3,132.5,8C468.7,573.7,476.6,609.8,484.6,645.9z"/>
		<path fill-rule="evenodd" clip-rule="evenodd" fill="#BCBCBC" d="M484.6,645.9c-63.8-3.2-127.7-6.4-191.5-9.6
			c12.4-35.6,24.7-71.3,37.1-106.9c43.5,2.7,87,5.4,130.4,8.1C468.7,573.7,476.6,609.8,484.6,645.9z"/>
		<path fill-rule="evenodd" clip-rule="evenodd" fill="#BBBBBB" d="M484.6,645.9c-62.9-3.3-125.9-6.6-188.8-9.9
			c12.2-35.5,24.3-71,36.5-106.5c42.8,2.7,85.6,5.4,128.4,8.1C468.7,573.7,476.6,609.8,484.6,645.9z"/>
		<path fill-rule="evenodd" clip-rule="evenodd" fill="#BABABA" d="M484.6,645.9c-62.1-3.4-124.1-6.9-186.2-10.3
			c12-35.4,24-70.8,35.9-106.2c42.1,2.7,84.2,5.5,126.3,8.2C468.7,573.7,476.6,609.8,484.6,645.9z"/>
		<path fill-rule="evenodd" clip-rule="evenodd" fill="#B9B9B9" d="M484.6,645.9c-61.2-3.6-122.4-7.2-183.6-10.7
			c11.8-35.3,23.6-70.6,35.3-105.9c41.4,2.8,82.8,5.5,124.2,8.3C468.7,573.7,476.6,609.8,484.6,645.9z"/>
		<path fill-rule="evenodd" clip-rule="evenodd" fill="#B8B8B8" d="M484.6,645.9c-60.3-3.7-120.6-7.4-180.9-11.1
			c11.6-35.2,23.2-70.4,34.8-105.5c40.7,2.8,81.5,5.6,122.2,8.3C468.7,573.7,476.6,609.8,484.6,645.9z"/>
		<path fill-rule="evenodd" clip-rule="evenodd" fill="#B7B7B7" d="M484.6,645.9c-59.4-3.8-118.9-7.7-178.3-11.5
			c11.4-35.1,22.8-70.1,34.2-105.2c40,2.8,80.1,5.6,120.1,8.4C468.7,573.7,476.6,609.8,484.6,645.9z"/>
		<path fill-rule="evenodd" clip-rule="evenodd" fill="#B6B6B6" d="M484.6,645.9c-58.5-4-117.1-7.9-175.6-11.9
			c11.2-35,22.4-69.9,33.6-104.9c39.4,2.8,78.7,5.6,118.1,8.5C468.7,573.7,476.6,609.8,484.6,645.9z"/>
		<path fill-rule="evenodd" clip-rule="evenodd" fill="#B5B5B5" d="M484.6,645.9c-57.7-4.1-115.3-8.2-173-12.3
			c11-34.9,22-69.7,33-104.6c38.7,2.8,77.3,5.7,116,8.5C468.7,573.7,476.6,609.8,484.6,645.9z"/>
		<path fill-rule="evenodd" clip-rule="evenodd" fill="#B4B4B4" d="M484.6,645.9c-56.8-4.2-113.6-8.5-170.3-12.7
			c10.8-34.7,21.6-69.5,32.4-104.2c38,2.9,76,5.7,113.9,8.6C468.7,573.7,476.6,609.8,484.6,645.9z"/>
		<path fill-rule="evenodd" clip-rule="evenodd" fill="#B3B3B3" d="M484.6,645.9c-55.9-4.4-111.8-8.7-167.7-13.1
			c10.6-34.6,21.2-69.3,31.9-103.9c37.3,2.9,74.6,5.8,111.9,8.6C468.7,573.7,476.6,609.8,484.6,645.9z"/>
		<path fill-rule="evenodd" clip-rule="evenodd" fill="#B2B2B2" d="M484.6,645.9c-55-4.5-110-9-165.1-13.5
			c10.4-34.5,20.9-69,31.3-103.6c36.6,2.9,73.2,5.8,109.8,8.7C468.7,573.7,476.6,609.8,484.6,645.9z"/>
		<path fill-rule="evenodd" clip-rule="evenodd" fill="#B1B1B1" d="M484.6,645.9c-54.1-4.6-108.3-9.3-162.4-13.9
			c10.2-34.4,20.5-68.8,30.7-103.2c35.9,2.9,71.8,5.8,107.7,8.8C468.7,573.7,476.6,609.8,484.6,645.9z"/>
		<path fill-rule="evenodd" clip-rule="evenodd" fill="#B0B0B0" d="M484.6,645.9c-53.3-4.8-106.5-9.5-159.8-14.3
			c10-34.3,20.1-68.6,30.1-102.9c35.2,2.9,70.5,5.9,105.7,8.8C468.7,573.7,476.6,609.8,484.6,645.9z"/>
		<path fill-rule="evenodd" clip-rule="evenodd" fill="#AFAFAF" d="M484.6,645.9c-52.4-4.9-104.8-9.8-157.1-14.7
			c9.8-34.2,19.7-68.4,29.5-102.6c34.5,3,69.1,5.9,103.6,8.9C468.7,573.7,476.6,609.8,484.6,645.9z"/>
		<path fill-rule="evenodd" clip-rule="evenodd" fill="#AEAEAE" d="M484.6,645.9c-51.5-5-103-10.1-154.5-15.1
			c9.7-34.1,19.3-68.1,29-102.2c33.9,3,67.7,6,101.6,9C468.7,573.7,476.6,609.8,484.6,645.9z"/>
		<path fill-rule="evenodd" clip-rule="evenodd" fill="#ADADAD" d="M484.6,645.9c-50.6-5.2-101.2-10.3-151.8-15.5
			c9.5-34,18.9-67.9,28.4-101.9c33.2,3,66.3,6,99.5,9C468.7,573.7,476.6,609.8,484.6,645.9z"/>
		<path fill-rule="evenodd" clip-rule="evenodd" fill="#ACACAC" d="M484.6,645.9c-49.7-5.3-99.5-10.6-149.2-15.9
			c9.3-33.9,18.5-67.7,27.8-101.6c32.5,3,65,6.1,97.4,9.1C468.7,573.7,476.6,609.8,484.6,645.9z"/>
		<path fill-rule="evenodd" clip-rule="evenodd" fill="#ABABAB" d="M484.6,645.9c-48.9-5.4-97.7-10.8-146.6-16.3
			c9.1-33.7,18.1-67.5,27.2-101.2c31.8,3.1,63.6,6.1,95.4,9.1C468.7,573.7,476.6,609.8,484.6,645.9z"/>
		<path fill-rule="evenodd" clip-rule="evenodd" fill="#AAAAAA" d="M484.6,645.9c-48-5.6-95.9-11.1-143.9-16.7
			c8.9-33.6,17.8-67.3,26.6-100.9c31.1,3.1,62.2,6.1,93.3,9.2C468.7,573.7,476.6,609.8,484.6,645.9z"/>
		<path fill-rule="evenodd" clip-rule="evenodd" fill="#A9A9A9" d="M484.6,645.9c-47.1-5.7-94.2-11.4-141.3-17.1
			c8.7-33.5,17.4-67,26.1-100.6c30.4,3.1,60.8,6.2,91.2,9.3C468.7,573.7,476.6,609.8,484.6,645.9z"/>
		<path fill-rule="evenodd" clip-rule="evenodd" fill="#A8A8A8" d="M484.6,645.9c-46.2-5.8-92.4-11.6-138.6-17.5
			c8.5-33.4,17-66.8,25.5-100.2c29.7,3.1,59.5,6.2,89.2,9.3C468.7,573.7,476.6,609.8,484.6,645.9z"/>
		<path fill-rule="evenodd" clip-rule="evenodd" fill="#A6A6A6" d="M484.6,645.9c-45.3-6-90.7-11.9-136-17.9
			c8.3-33.3,16.6-66.6,24.9-99.9c29,3.1,58.1,6.3,87.1,9.4C468.7,573.7,476.6,609.8,484.6,645.9z"/>
		<path fill-rule="evenodd" clip-rule="evenodd" fill="#A5A5A5" d="M484.6,645.9c-44.4-6.1-88.9-12.2-133.3-18.3
			c8.1-33.2,16.2-66.4,24.3-99.6c28.4,3.2,56.7,6.3,85.1,9.5C468.7,573.7,476.6,609.8,484.6,645.9z"/>
		<path fill-rule="evenodd" clip-rule="evenodd" fill="#A4A4A4" d="M484.6,645.9c-43.6-6.2-87.1-12.4-130.7-18.6
			c7.9-33.1,15.8-66.2,23.7-99.2c27.7,3.2,55.3,6.4,83,9.5C468.7,573.7,476.6,609.8,484.6,645.9z"/>
		<path fill-rule="evenodd" clip-rule="evenodd" fill="#A3A3A3" d="M484.6,645.9c-42.7-6.3-85.4-12.7-128.1-19
			c7.7-33,15.4-65.9,23.2-98.9c27,3.2,54,6.4,80.9,9.6C468.7,573.7,476.6,609.8,484.6,645.9z"/>
		<path fill-rule="evenodd" clip-rule="evenodd" fill="#A2A2A2" d="M484.6,645.9c-41.8-6.5-83.6-13-125.4-19.4
			c7.5-32.9,15-65.7,22.6-98.6c26.3,3.2,52.6,6.4,78.9,9.7C468.7,573.7,476.6,609.8,484.6,645.9z"/>
		<path fill-rule="evenodd" clip-rule="evenodd" fill="#A1A1A1" d="M484.6,645.9c-40.9-6.6-81.8-13.2-122.8-19.8
			c7.3-32.7,14.7-65.5,22-98.2c25.6,3.2,51.2,6.5,76.8,9.7C468.7,573.7,476.6,609.8,484.6,645.9z"/>
		<path fill-rule="evenodd" clip-rule="evenodd" fill="#A0A0A0" d="M484.6,645.9c-40-6.7-80.1-13.5-120.1-20.2
			c7.1-32.6,14.3-65.3,21.4-97.9c24.9,3.3,49.8,6.5,74.7,9.8C468.7,573.7,476.6,609.8,484.6,645.9z"/>
		<path fill-rule="evenodd" clip-rule="evenodd" fill="#9F9F9F" d="M484.6,645.9c-39.2-6.9-78.3-13.7-117.5-20.6
			c6.9-32.5,13.9-65,20.8-97.6c24.2,3.3,48.5,6.6,72.7,9.8C468.7,573.7,476.6,609.8,484.6,645.9z"/>
		<path fill-rule="evenodd" clip-rule="evenodd" fill="#9E9E9E" d="M484.6,645.9c-38.3-7-76.6-14-114.8-21
			c6.8-32.4,13.5-64.8,20.3-97.2c23.5,3.3,47.1,6.6,70.6,9.9C468.7,573.7,476.6,609.8,484.6,645.9z"/>
		<path fill-rule="evenodd" clip-rule="evenodd" fill="#9D9D9D" d="M484.6,645.9c-37.4-7.1-74.8-14.3-112.2-21.4
			c6.6-32.3,13.1-64.6,19.7-96.9c22.9,3.3,45.7,6.6,68.6,10C468.7,573.7,476.6,609.8,484.6,645.9z"/>
		<path fill-rule="evenodd" clip-rule="evenodd" fill="#9C9C9C" d="M484.6,645.9c-36.5-7.3-73-14.5-109.6-21.8
			c6.4-32.2,12.7-64.4,19.1-96.6c22.2,3.3,44.3,6.7,66.5,10C468.7,573.7,476.6,609.8,484.6,645.9z"/>
		<path fill-rule="evenodd" clip-rule="evenodd" fill="#9B9B9B" d="M484.6,645.9c-35.6-7.4-71.3-14.8-106.9-22.2
			c6.2-32.1,12.3-64.2,18.5-96.2c21.5,3.4,43,6.7,64.4,10.1C468.7,573.7,476.6,609.8,484.6,645.9z"/>
		<path fill-rule="evenodd" clip-rule="evenodd" fill="#9A9A9A" d="M484.6,645.9c-34.8-7.5-69.5-15.1-104.3-22.6
			c6-32,12-63.9,17.9-95.9c20.8,3.4,41.6,6.8,62.4,10.2C468.7,573.7,476.6,609.8,484.6,645.9z"/>
		<polygon fill-rule="evenodd" clip-rule="evenodd" fill="#999999" points="484.6,645.9 383,622.9 400.4,527.3 460.7,537.5 		"/>
	</g>
	<polygon fill-rule="evenodd" clip-rule="evenodd" fill="#C8C8C8" points="514.5,385 260.5,361.2 150,610.9 484.6,645.9 
		747.3,584.2 1050.4,635.2 930.3,380.4 710.8,329.5 	"/>
	<path fill-rule="evenodd" clip-rule="evenodd" fill="#FFFFFF" d="M747.2,582.7c50.1,8.5,100.3,16.9,150.4,25.3
		c50.1,8.4,100.2,16.9,150.3,25.3c-19.8-41.9-39.6-83.8-59.4-125.8c-19.8-41.9-39.5-83.9-59.3-125.8c-36.4-8.5-72.8-16.9-109.2-25.3
		c-36.4-8.4-72.8-16.9-109.3-25.3c6.1,42,12.2,83.9,18.2,125.9C735.1,498.9,741.2,540.8,747.2,582.7z"/>
	<path fill-rule="evenodd" clip-rule="evenodd" fill="#E4DDD7" d="M746.3,575.8c47,8,94,15.9,140.9,23.9
		c46.9,8,93.9,15.9,140.8,23.9c-18-39.6-36-79.2-53.9-118.9c-18-39.6-35.9-79.3-53.9-118.9c-34.7-8-69.4-15.9-104.2-23.9
		c-34.7-8-69.4-16-104.2-23.9c5.7,39.7,11.5,79.3,17.2,118.9C734.8,496.6,740.5,536.2,746.3,575.8z"/>
	<path fill-rule="evenodd" clip-rule="evenodd" fill="#FFFFFF" d="M741.3,541.3c18.3,8.8,36.8,17.7,55.6,26.5
		c18.9,8.9,38.2,17.7,57.6,26.4c-11.1-1.9-22.3-3.8-33.4-5.7c-13.3-6.1-26.6-12.2-39.6-18.3c-13-6.1-25.9-12.2-38.7-18.3
		C742.3,548.4,741.8,544.8,741.3,541.3z"/>
	<path fill-rule="evenodd" clip-rule="evenodd" fill="#FFFFFF" d="M726.7,440.6c40,8,80,15.9,120,23.9c40,8,80,15.9,120,23.9
		c1.3,2.8,2.5,5.6,3.8,8.3c-40.4-8-80.8-15.9-121.3-23.9c-40.4-8-80.9-16-121.3-23.9C727.6,446.2,727.1,443.4,726.7,440.6z"/>
	<path fill-rule="evenodd" clip-rule="evenodd" fill="#FFFFFF" d="M727.9,449.2c11.4,0,22.6-0.1,33.8-0.2c3.8,3,7.7,6,11.5,8.9
		c-14.5,0.1-29.2,0.2-43.9,0.3C728.8,455.2,728.4,452.1,727.9,449.2z"/>
	<path fill-rule="evenodd" clip-rule="evenodd" fill="#FFFFFF" d="M770.3,566.3c-4.2-3-8.5-5.9-12.7-8.9c29.3-2.6,58.1-5.2,86.3-7.8
		c27.6-2.6,54.8-5.2,81.3-7.8c4.5,3,9,6,13.5,8.9c-26.7,2.6-54,5.2-81.7,7.8C828.8,561.2,799.8,563.8,770.3,566.3z"/>
	<path fill-rule="evenodd" clip-rule="evenodd" fill="#FFFFFF" d="M861.4,549.2c-1.8,2.2-3.5,4.3-5.3,6.4
		c-20.3-7.3-40.4-14.7-60.3-22.1c-19.7-7.3-39.3-14.7-58.8-22.1c-0.1-0.7-0.2-1.5-0.3-2.2c1.6-1.6,3.2-3.3,4.7-4.9
		c19.6,7.5,39.3,15,59.2,22.5C820.6,534.4,841,541.8,861.4,549.2z"/>
	<path fill-rule="evenodd" clip-rule="evenodd" fill="#FFFFFF" d="M984.7,528.2c-30.2-8.2-60.2-16.5-90-24.7
		c-29.6-8.2-59-16.5-88.3-24.8c0-2.6,0-5.3-0.1-7.9c28.6,8.2,57.4,16.4,86.4,24.5c29.2,8.2,58.6,16.3,88.1,24.4
		C982.2,522.6,983.4,525.4,984.7,528.2z"/>
	<path fill-rule="evenodd" clip-rule="evenodd" fill="#FFFFFF" d="M842.9,518.6c-4.2-2.9-8.4-5.9-12.6-8.9c10.8-2,21.5-3.9,32.1-5.9
		c10.4-2,20.8-4,30.9-6c4.3,3,8.6,6,12.9,8.9c-10.2,2-20.6,4-31.1,6C864.5,514.6,853.8,516.6,842.9,518.6z"/>
	<path fill-rule="evenodd" clip-rule="evenodd" fill="#FFFFFF" d="M716.8,372.4c35.8,4.3,71.2,8.5,106.2,12.8
		c34.6,4.2,68.8,8.5,102.7,12.8c1.3,2.8,2.5,5.6,3.8,8.4c-34.2-4.3-68.9-8.5-104-12.7c-35.4-4.3-71.3-8.5-107.5-12.8
		C717.6,378,717.2,375.2,716.8,372.4z"/>
	<path fill-rule="evenodd" clip-rule="evenodd" fill="#FFFFFF" d="M840.4,462.4c-1.5,2.1-3,4.3-4.6,6.4
		c-20.4-12.8-40.5-25.6-60-38.5c-19.2-12.7-37.9-25.6-56.2-38.5c-0.5-3.7-1.1-7.5-1.6-11.2c19.2,13.6,38.8,27.4,59.1,40.9
		C797.6,435.2,818.8,448.8,840.4,462.4z"/>
	<path fill-rule="evenodd" clip-rule="evenodd" fill="#FFFFFF" d="M768.5,423.1c-4.6-3.3-9.1-6.6-13.7-9.9c32,3.5,63.6,7,95,10.6
		c31.1,3.5,61.9,7,92.4,10.5c1.3,2.9,2.6,5.7,3.9,8.6c-28.9-3.3-58.1-6.6-87.6-9.9C828.7,429.7,798.8,426.4,768.5,423.1z"/>
	<path fill-rule="evenodd" clip-rule="evenodd" fill="#FFFFFF" d="M967,489.1c-34.5-22.6-68-45-99.9-67.9
		c-31.1-22.4-60.6-45.3-89-68c5.5,1.2,11,2.5,16.5,3.8c25.5,20.1,51.8,40.3,79.3,60.1c28.1,20.2,57.5,40.1,87.7,60.1
		C963.4,481.1,965.2,485.1,967,489.1z"/>
	<path fill-rule="evenodd" clip-rule="evenodd" fill="#FFFFFF" d="M813.1,451.3c-4.9-3.3-9.6-6.6-14.5-9.9c20.5,2.1,40.8,4.1,61,6.2
		c20.1,2,40,4.1,59.8,6.1c5.2,3.3,10.3,6.6,15.5,9.9c-20-2-40.1-4-60.3-6.1C854.2,455.4,833.7,453.3,813.1,451.3z"/>
	<path fill-rule="evenodd" clip-rule="evenodd" fill="#FFFFFF" d="M721.3,403c14.2,3,28.4,5.9,42.6,8.9c6.7,4.4,13.3,8.7,20.1,13.1
		c-10.2-2.1-20.4-4.2-30.6-6.3c-10.2-2.1-20.4-4.2-30.6-6.3C722.2,409.2,721.7,406.1,721.3,403z"/>
	<path fill-rule="evenodd" clip-rule="evenodd" fill="#FFFFFF" d="M713.1,346.5c12.6,1.8,25.2,3.5,37.8,5.3
		c12.5,1.8,25,3.5,37.4,5.3c4.4,3.3,8.7,6.6,13.1,9.9c-14.4-2-28.8-4.1-43.3-6.1c-14.6-2-29.2-4.1-43.9-6.1
		C713.9,352.1,713.5,349.3,713.1,346.5z"/>
	<path fill-rule="evenodd" clip-rule="evenodd" fill="#FFFFFF" d="M737.3,502c-0.5,0.5-1,1-1.5,1.5c-0.1-0.8-0.2-1.6-0.4-2.4
		C736.1,501.4,736.7,501.7,737.3,502z"/>
	<path fill-rule="evenodd" clip-rule="evenodd" fill="#CCCC00" d="M760.7,420.2c19.6,13.1,39.6,26.1,60.1,39.2
		c-15.6-3.1-31.4-1.7-47-4.8c-15.6-3.1-31.2-9.7-46.9-12.9c-1.4-9.5-2.9-20.1-4.3-29.6C735.3,414.8,748,417.5,760.7,420.2z"/>
	<path fill-rule="evenodd" clip-rule="evenodd" fill="#CCCC00" d="M882.2,500c-17,3.3-34.2,6.5-51.9,9.7
		c-18.3-6.7-39-14.6-57.1-21.4c10.4-3.6,23.2-6,33.3-9.6c12.5,3.6,25.2,7.1,37.8,10.6C856.9,492.9,869.5,496.4,882.2,500z"/>
	<path fill-rule="evenodd" clip-rule="evenodd" fill="#D4CBBA" d="M718.4,380.9c7.7,5.4,15.4,10.9,23.2,16.4
		c17.6,2,35.1,3.9,52.5,5.9c-6.8-5.3-13.7-10.5-20.4-15.8C755.3,385.2,736.9,383,718.4,380.9z"/>
	<path fill-rule="evenodd" clip-rule="evenodd" fill="#CCCC00" d="M928.4,551.8c-11.6,1.1-23.4,2.3-35.3,3.4
		c-12,1.1-24.1,2.3-36.3,3.4c13.8,6.4,27.7,12.8,41.8,19.3c12.3-2,24.4-3.9,36.3-5.9c11.8-2,23.5-4,35-6
		C956.1,561.2,942.2,556.5,928.4,551.8z"/>
	<path fill-rule="evenodd" clip-rule="evenodd" fill="#CCCC00" d="M845,395.9c14.6,10.8,29.4,21.6,44.5,32.3c17.6,2,35.2,4.1,52.6,6
		c-4.2-9.3-8.5-18.6-12.7-28c-13.9-1.7-27.9-3.5-41.9-5.2C873.4,399.4,859.3,397.7,845,395.9z"/>
	<path fill-rule="evenodd" clip-rule="evenodd" fill="#FFFFFF" d="M825,422.8c6.4,0.7,12.8,1.4,19.1,2.1
		c12.7,9.8,25.7,19.5,38.9,29.2c13.3,9.8,27,19.5,40.8,29.2c-7.2-1.1-14.5-2.1-21.7-3.2c-13.4-9.6-26.6-19.1-39.5-28.7
		C849.9,442,837.4,432.3,825,422.8z"/>
	<path fill-rule="evenodd" clip-rule="evenodd" fill="#D4CBBA" d="M888.6,436.4c7.9,5.5,15.8,11,23.9,16.5c-12-1.2-24-2.4-36.1-3.7
		c-7.5-5.6-14.9-11.1-22.2-16.7C865.6,433.8,877.1,435.1,888.6,436.4z"/>
	<g>
		<path fill-rule="evenodd" clip-rule="evenodd" fill="#C8C8C8" d="M484.5,644.4c43.8-10.3,87.6-20.6,131.4-30.8
			c43.8-10.3,87.6-20.6,131.3-30.9c-3.1-21.2-6.1-42.5-9.2-63.7c-3.9,8.9-6.7,18.3-8.2,28.3c-6.3,1.1-12.7,2.2-19,3.3
			c3.5-20.7,12.3-39.2,23.8-55.5l1.3,9l-6.8-47.1C723,415,716.9,373,710.9,331.1c-32.7,9.2-65.4,18.5-98.1,27.7
			c-32.7,9.2-65.4,18.5-98.2,27.7c-5,43-10,86-15.1,129C494.5,558.5,489.5,601.5,484.5,644.4z"/>
		<path fill-rule="evenodd" clip-rule="evenodd" fill="#B3AEA9" d="M485.3,637.4c43.5-10.3,87-20.5,130.5-30.8
			c43.5-10.2,87-20.5,130.4-30.8c-2.8-18.9-5.5-37.9-8.2-56.8c-3.9,8.9-6.7,18.3-8.2,28.3c-6.3,1.1-12.7,2.2-19,3.3
			c3.5-20.7,12.3-39.2,23.8-55.5l-5.5-38.2c-5.7-39.6-11.5-79.3-17.2-119c-33,9.3-66,18.5-99,27.8c-33,9.3-66,18.6-99.1,27.8
			c-4.8,40.6-9.5,81.3-14.2,121.9C494.8,556.1,490.1,596.7,485.3,637.4z"/>
		<path fill-rule="evenodd" clip-rule="evenodd" fill="#C8C8C8" d="M500.9,504.1c-0.4,3.7-0.8,7.3-1.3,11c37,6.5,75.5,13,115.3,19.1
			c31.3,4.7,63.4,9.2,96.4,13.6c0.7-3.5,1.5-6.9,2.5-10.2c-33.9-4.6-66.9-9.3-99-14.2C575.4,517.2,537.5,510.6,500.9,504.1
			L500.9,504.1z M729.8,547.3c-3.2,0.6-6.4,1.1-9.6,1.7c7.5,1,15,2,22.6,3c-0.5-3.6-1-7.1-1.5-10.7c-3.4-0.5-6.7-0.9-10.1-1.4
			C730.6,542.3,730.2,544.8,729.8,547.3z"/>
		<path fill-rule="evenodd" clip-rule="evenodd" fill="#C8C8C8" d="M501.5,498.7c37.5-9.7,75.1-19.4,112.6-29
			c37.5-9.7,75.1-19.4,112.6-29.1c0.4,2.8,0.8,5.6,1.2,8.3c-37.9,9.7-75.8,19.5-113.7,29.2c-37.9,9.7-75.8,19.4-113.7,29.1
			C500.8,504.5,501.1,501.6,501.5,498.7z"/>
		<path fill-rule="evenodd" clip-rule="evenodd" fill="#512677" d="M498.2,526.8c19.2-8.1,33.5-20.9,34.4-31.9
			c0.9-11-11.3-17-28.9-15.7C501.9,495.1,500.1,511,498.2,526.8z"/>
		<path fill-rule="evenodd" clip-rule="evenodd" fill="#9B9700" d="M499.3,517.9c10.2-5.4,17.5-12.7,18.1-19.1
			c0.6-6.4-5.3-10.2-14.6-10.7C501.6,498.1,500.4,508,499.3,517.9z"/>
		<path fill-rule="evenodd" clip-rule="evenodd" fill="#C8C8C8" d="M582.5,529.1c-3-1.5-6.1-3.1-9.2-4.7
			c26.6-12.6,53-25.1,78.9-37.7c25.6-12.4,50.9-25,75.7-37.5c0.4,3,0.9,6,1.3,9c-23.7,11.8-47.7,23.7-72,35.4
			C632.7,505.3,607.7,517.2,582.5,529.1z"/>
		<path fill-rule="evenodd" clip-rule="evenodd" fill="#C8C8C8" d="M506.8,453.1c35.9-13.5,71.5-27,106.6-40.5
			c34.9-13.4,69.3-26.8,103.4-40.2c0.4,2.8,0.8,5.6,1.2,8.4c-34.5,13.4-69.3,26.9-104.5,40.3c-35.5,13.5-71.5,27-107.7,40.5
			C506.1,458.8,506.5,456,506.8,453.1z"/>
		<path fill-rule="evenodd" clip-rule="evenodd" fill="#C8C8C8" d="M662.4,397.6c-4,2.4-8,4.9-12.1,7.3c-13.2-4.7-26.3-9.3-39-14.1
			c-12.5-4.7-24.7-9.5-36.7-14.4c5.9-1.6,11.7-3.3,17.5-4.9c11.1,4.4,22.5,8.8,34.1,13.1C638,389,650.1,393.4,662.4,397.6z"/>
		<path fill-rule="evenodd" clip-rule="evenodd" fill="#C8C8C8" d="M674.5,456.8c-4.5,2.6-9,5.1-13.5,7.7
			c-4.6-20.2-9.1-40.5-13.4-60.8c4.2-2.5,8.4-5.1,12.5-7.6C664.8,416.4,669.6,436.6,674.5,456.8z"/>
		<path fill-rule="evenodd" clip-rule="evenodd" fill="#C8C8C8" d="M651.2,431.2c0.3-3.3,0.5-6.5,0.7-9.7
			c11.6-3.1,23.1-6.1,34.7-9.2c11.5-3.1,23.1-6.1,34.6-9.2c0.5,3.1,0.9,6.2,1.4,9.3c-11.9,3.2-23.8,6.3-35.7,9.4
			C675.1,424.9,663.1,428,651.2,431.2z"/>
		<path fill-rule="evenodd" clip-rule="evenodd" fill="#C8C8C8" d="M505.7,462.4c25.9-7.2,51.7-14.4,77.4-21.6
			c25.8-7.2,51.5-14.4,77.2-21.7c0.8,3,1.7,6,2.5,9c-26.3,7.3-52.7,14.7-79.1,22c-26.3,7.3-52.8,14.7-79.3,22
			C505,468.8,505.4,465.6,505.7,462.4z"/>
		<path fill-rule="evenodd" clip-rule="evenodd" fill="#C8C8C8" d="M624.3,473c-5.8,0.9-11.7,1.8-17.5,2.8
			c0.2-11.8,0.3-23.7,0.4-35.5c5.6-0.6,11.3-1.2,16.9-1.8C624.2,450,624.3,461.5,624.3,473z"/>
		<path fill-rule="evenodd" clip-rule="evenodd" fill="#C8C8C8" d="M567.9,486.6c-5.8,0.9-11.6,1.9-17.4,2.8
			c0.9-11.9,1.8-23.8,2.7-35.8c5.6-0.6,11.1-1.1,16.7-1.7C569.2,463.5,568.6,475,567.9,486.6z"/>
		<path fill-rule="evenodd" clip-rule="evenodd" fill="#C8C8C8" d="M620.4,390.2c-3.5-1.5-6.9-3.1-10.4-4.6
			c17.3-6.5,34.7-13.1,51.9-19.6c17.1-6.5,34.2-13,51.2-19.6c0.4,2.8,0.8,5.6,1.2,8.4c-15.4,5.9-31,11.8-46.6,17.7
			C652,378.4,636.3,384.3,620.4,390.2z"/>
		<path fill-rule="evenodd" clip-rule="evenodd" fill="#C8C8C8" d="M492,580.5c26-8.1,51.9-16.2,77.7-24.3
			c25.7-8.1,51.3-16.2,76.8-24.3c-0.1,2.9-0.2,5.7-0.3,8.6c-25.6,8.1-51.3,16.2-77.1,24.2c-25.9,8.1-51.9,16.2-78,24.3
			C491.3,586.2,491.6,583.3,492,580.5z"/>
		<path fill-rule="evenodd" clip-rule="evenodd" fill="#C8C8C8" d="M671.7,561.8c-7.4,2.8-14.8,5.7-22.3,8.5
			c-11.9-2.1-23.7-4.3-35.3-6.5c-11.5-2.2-22.9-4.5-34.3-6.7c7.3-2.8,14.6-5.6,21.8-8.4c11.4,2.3,22.9,4.5,34.5,6.6
			C647.8,557.4,659.7,559.6,671.7,561.8z"/>
		<path fill="#512677" d="M734.6,495.1c-11.5,16.3-20.3,34.8-23.8,55.5c6.3-1.1,12.7-2.2,19-3.3c1.5-10,4.4-19.4,8.2-28.3
			C736.9,511,735.7,503.1,734.6,495.1z"/>
		<path fill-rule="evenodd" clip-rule="evenodd" fill="#C8C8C8" d="M735.8,503.5c-0.1-0.5-0.2-1.1-0.3-1.7L735.8,503.5L735.8,503.5
			L735.8,503.5z M730.8,500.7c-14.7-1.3-29.3-2.7-43.8-4c-15.8-1.5-31.4-3.1-46.8-4.7c-1.9,3.1-3.9,6.3-5.9,9.4
			c15.8,1.6,31.8,3.2,47.9,4.7c14.2,1.3,28.6,2.6,43,3.9C727,506.8,728.8,503.7,730.8,500.7z"/>
		<path fill-rule="evenodd" clip-rule="evenodd" fill="#C8C8C8" d="M665.8,594.8c-6.6-8.2-13.1-16.4-19.6-24.6
			c5.9-2.6,11.7-5.3,17.5-7.9c7.4,9.2,14.9,18.5,22.6,27.6C679.5,591.6,672.7,593.2,665.8,594.8z"/>
		<path fill-rule="evenodd" clip-rule="evenodd" fill="#C8C8C8" d="M496.5,541.9c15.6-3.9,31.3-7.8,46.9-11.7
			c15.6-3.9,31.2-7.8,46.9-11.8c0.8,2.9,1.5,5.8,2.3,8.7c-16.2,4-32.4,8.1-48.6,12.1c-16.2,4-32.4,8.1-48.6,12.1
			C495.7,548.2,496.1,545,496.5,541.9z"/>
		<path fill-rule="evenodd" clip-rule="evenodd" fill="#9B9700" d="M657.4,536.9c-10.9,3.4-33.2,10.5-44.2,13.9
			c15.4,2.9,31,5.9,46.8,8.8c14.2-4.3,28.3-8.7,42.5-13C683.4,544.6,676,539,657.4,536.9z"/>
		<path fill-rule="evenodd" clip-rule="evenodd" fill="#9B9700" d="M726.7,440.6c-17.6,4.6-35.2,9.1-52.8,13.7
			c-2.3-9.3-4.5-18.5-6.7-27.8c9.2-2.4,18.5-4.8,27.7-7.2c9.2-2.4,18.4-4.8,27.7-7.2C724,421.6,725.3,431.1,726.7,440.6z"/>
		<path fill-rule="evenodd" clip-rule="evenodd" fill="#A7A093" d="M607.2,443.6c-0.1,9.3-0.2,18.6-0.4,28
			c-12.9,3.3-25.7,6.6-38.6,10c0.6-9.2,1.1-18.4,1.6-27.6C582.3,450.5,594.8,447,607.2,443.6z"/>
		<path fill-rule="evenodd" clip-rule="evenodd" fill="#A7A093" d="M641.5,401.8c-11.3-4-22.4-8.1-33.3-12.1
			c-9.7,3.8-19.5,7.6-29.3,11.3c-9.8,3.8-19.7,7.6-29.6,11.3c6.9,5.6,14,11.2,21.2,16.7c11.9-4.5,23.8-9.1,35.7-13.6
			C618,410.9,629.8,406.4,641.5,401.8z"/>
		<path fill-rule="evenodd" clip-rule="evenodd" fill="#A7A093" d="M505.7,462.4c24.3-6.7,48.7-13.6,72.9-20.4
			c24.2-6.8,48.5-13.6,72.7-20.4c-1-4.6-2-9.2-2.9-13.9c-23.4,9-46.9,17.9-70.6,26.9c-23.8,9-47.8,18-72,27
			C505.8,461.9,505.7,462.2,505.7,462.4z"/>
		<path fill-rule="evenodd" clip-rule="evenodd" fill="#512677" d="M488.3,611.7c38.8-11.7,77.4-23.4,115.8-35
			c36.2-11,72.3-22.1,108.1-33.1c-0.5,2.3-1,4.6-1.4,7c2.5-0.4,5-0.9,7.5-1.3l0,1.1c-38,11.6-76.2,23.3-114.6,34.9
			c-38.6,11.6-77.4,23.3-116.4,35C487.6,617.4,488,614.6,488.3,611.7z"/>
	</g>
	<path fill-rule="evenodd" clip-rule="evenodd" fill="#FFFFFF" d="M261.4,362.7c-18.2,41.2-36.4,82.4-54.6,123.5
		c-18.2,41.1-36.4,82.3-54.6,123.4c55.4,5.8,110.9,11.6,166.2,17.4c55.4,5.8,110.8,11.6,166.1,17.4c5-43,10-86,15-128.9
		c5-43,10-86,15-129c-42.1-3.9-84.4-7.9-126.6-11.9C345.8,370.6,303.6,366.7,261.4,362.7z"/>
	<path fill-rule="evenodd" clip-rule="evenodd" fill="#E4DDD7" d="M272.7,370.9c-16.5,39-33,78-49.5,117c-16.5,39-33,78-49.5,116.9
		c52,5.4,103.9,10.9,155.9,16.3c51.9,5.4,103.9,10.8,155.8,16.3c4.7-40.7,9.5-81.3,14.2-121.9c4.7-40.6,9.5-81.3,14.2-121.9
		c-40.2-3.8-80.3-7.5-120.5-11.3C353.1,378.5,312.9,374.7,272.7,370.9z"/>
	<path fill-rule="evenodd" clip-rule="evenodd" fill="#FFFFFF" d="M410.3,383.8c11.7,20.1,23.8,40.5,37.1,60.7
		c13.6,20.6,28.4,40.9,43.7,61.5c-6.4,0.5-12.9,1-19.3,1.4c-15.4-21.2-30.3-42.1-43.9-63.2c-13.3-20.7-25.4-41.6-37-62.3
		C397.4,382.6,403.8,383.2,410.3,383.8z"/>
	<path fill="#FFFFFF" d="M454.7,496.8c-7.9,11.9-23.7,33.2-66.4,53.2c-19.9,9-45.9,17.9-79.7,25.2c-34.4,7.5-77.1,13.4-129.7,17.2
		c-1.4,3.3-2.8,6.6-4.2,9.8c59-3.7,106.5-10,144.6-18c37.4-7.9,65.7-17.5,87.4-27.4c44.9-21.3,61-43.7,69-56.2
		C468.8,499.4,461.7,498.1,454.7,496.8z"/>
	<path fill-rule="evenodd" clip-rule="evenodd" fill="#FFFFFF" d="M265.3,388.4c35.6,18.8,72.5,38,111.2,57
		c39.9,19.6,81.5,39,124.4,58.8c-0.4,3.7-0.8,7.3-1.3,11c-43.5-19.9-85.6-39.3-126-59c-39.1-19-76.6-38.3-112.7-57.2
		C262.3,395.4,263.8,391.9,265.3,388.4z"/>
	<path fill-rule="evenodd" clip-rule="evenodd" fill="#FFFFFF" d="M451.6,633.9c6-40.5,12-80.9,18-121.4c6-40.5,12-80.9,18-121.4
		c6,0.6,12,1.2,17.9,1.7c-5.1,40.6-10.3,81.2-15.4,121.8c-5.1,40.6-10.3,81.1-15.4,121.7C467,635.5,459.3,634.7,451.6,633.9z"/>
	<path fill-rule="evenodd" clip-rule="evenodd" fill="#FFFFFF" d="M230,471.8c45.3,4.5,90.6,9,135.8,13.5
		c45.3,4.5,90.5,9,135.7,13.5c-0.3,2.8-0.7,5.7-1,8.6c-45.6-4.5-91.3-9.1-137-13.6c-45.7-4.5-91.3-9.1-137-13.7
		C227.7,477.3,228.8,474.5,230,471.8z"/>
	<path fill-rule="evenodd" clip-rule="evenodd" fill="#662D91" d="M485,476c-19.4-1.9-60.5,5.5-63.3,19.2c-2.8,13.7,35.9,29,56.4,31
		c20.5,2.1,13.8,0.9,20.1,0.6c1.8-15.9,3.7-31.8,5.5-47.7C498,477.7,504.4,477.9,485,476z"/>
	<path fill-rule="evenodd" clip-rule="evenodd" fill="#CCCC00" d="M483.9,484.2c-14.4-1.4-41,3.6-42.7,12.9
		c-1.7,9.3,23,19.4,38,20.9c14.9,1.5,14.1,0.6,20.1-0.1c1.2-9.9,2.3-19.8,3.5-29.7C497.3,486.3,498.3,485.6,483.9,484.2z"/>
	<path fill-rule="evenodd" clip-rule="evenodd" fill="#FFFFFF" d="M487.1,461.5c0.2-2.8,0.4-5.7,0.6-8.6c6.4,0.1,12.8,0.1,19.1,0.2
		c-0.3,2.8-0.7,5.7-1,8.6C499.6,461.6,493.4,461.6,487.1,461.5z"/>
	<path fill-rule="evenodd" clip-rule="evenodd" fill="#FFFFFF" d="M481.6,470.1c-0.4-3.3-0.7-6.6-1-9.9c8.4,0.7,16.7,1.4,25.2,2.1
		c-0.4,3.3-0.8,6.5-1.2,9.7C497,471.4,489.3,470.7,481.6,470.1z"/>
	<path fill-rule="evenodd" clip-rule="evenodd" fill="#FFFFFF" d="M464.5,587.7c0.7-2.8,1.4-5.6,2.1-8.4c8.5,0.4,16.9,0.8,25.3,1.2
		c-0.3,2.8-0.7,5.7-1,8.5C482.2,588.6,473.4,588.2,464.5,587.7z"/>
	<path fill-rule="evenodd" clip-rule="evenodd" fill="#FFFFFF" d="M396.7,557.4c-7.8,0.6-15.6,1.2-23.4,1.7
		c-13.8-12.4-27.3-24.7-40.3-37.2c-12.8-12.2-25-24.6-37-36.8c7.5-0.6,14.9-1.2,22.3-1.9c12.2,12.3,24.6,24.6,37.6,36.8
		C369,532.5,382.7,544.9,396.7,557.4z"/>
	<path fill-rule="evenodd" clip-rule="evenodd" fill="#FFFFFF" d="M350.3,623.3c5.3-11.6,10.6-23.2,15.8-34.9
		c5.2-11.7,10.3-23.3,15.3-35c7.9,1.1,15.8,2.2,23.7,3.4c-4.7,11.6-9.5,23.1-14.3,34.7c-4.9,11.5-9.8,23-14.9,34.5
		C367.3,625,358.8,624.2,350.3,623.3z"/>
	<path fill-rule="evenodd" clip-rule="evenodd" fill="#FFFFFF" d="M384.7,562.1c1.2-3.9,2.4-7.7,3.6-11.6c14.3,4.3,28.7,8.7,43.2,13
		c14.6,4.4,29.2,8.8,44,13.1c-0.8,3.9-1.7,7.9-2.5,11.8c-14.9-4.4-29.8-8.8-44.5-13.2C413.8,570.9,399.2,566.5,384.7,562.1z"/>
	<path fill-rule="evenodd" clip-rule="evenodd" fill="#FFFFFF" d="M471.1,548.9c-1.4-3.3-2.8-6.6-4.2-9.9c9.9,1,19.8,2,29.6,3
		c-0.4,3.1-0.7,6.3-1.1,9.4C487.3,550.5,479.2,549.7,471.1,548.9z"/>
	<path fill-rule="evenodd" clip-rule="evenodd" fill="#FFFFFF" d="M417.1,409.7c-1.1,3.1-2.1,6.2-3.2,9.2
		c-20.3-1.2-40.6-2.5-60.9-3.7c-20.3-1.2-40.7-2.5-61.2-3.8c-4.3-3-8.7-6-13-9c23.2,1.3,46.4,2.4,69.4,3.7
		C371.2,407.3,394.2,408.5,417.1,409.7z"/>
	<path fill-rule="evenodd" clip-rule="evenodd" fill="#FFFFFF" d="M374.3,410c-8.1,0.3-16.3,0.6-24.4,0.8
		c-8.1-11.7-16-23.3-23.6-34.9c8.7,0.8,17.3,1.6,25.9,2.4C359.3,388.9,366.7,399.4,374.3,410z"/>
	<path fill-rule="evenodd" clip-rule="evenodd" fill="#FFFFFF" d="M444.5,446.7c-0.9,3.1-1.9,6.3-2.9,9.4
		c-13.4-1.5-26.8-3.2-40.2-4.7c-13.4-1.6-26.8-3.2-40.2-4.8c-4.7-3-9.5-6.1-14.2-9.2c16.2,1.5,32.5,3.1,48.7,4.7
		C412,443.7,428.3,445.2,444.5,446.7z"/>
	<path fill-rule="evenodd" clip-rule="evenodd" fill="#D4CBBA" d="M390.9,382c5,9,10.1,18,15.3,27.1c-11.3-0.6-22.5-1.1-33.9-1.7
		c-6.9-9.7-13.6-19.3-20.2-29C365.1,379.6,378,380.8,390.9,382z"/>
	<path fill-rule="evenodd" clip-rule="evenodd" fill="#FFFFFF" d="M206.2,527.9c22.8-2.5,45.5-5.1,67.9-7.7
		c22.2-2.6,44.2-5.3,66.1-8c2.7,2.8,5.4,5.5,8.1,8.3c-23.7,2.9-47.8,5.9-72,8.6c-24.4,2.8-49.2,5.6-74.2,8.3
		C203.6,534.2,204.9,531.1,206.2,527.9z"/>
	<path fill-rule="evenodd" clip-rule="evenodd" fill="#FFFFFF" d="M314.5,582.6c-6.7,0.9-13.4,1.8-20.1,2.6
		c-18.3-19.2-35.9-38.3-52.7-57.2c6.6-0.9,13-1.8,19.6-2.7C278.3,544.3,296,563.4,314.5,582.6z"/>
	<path fill-rule="evenodd" clip-rule="evenodd" fill="#FFFFFF" d="M193.4,558.2c25.3-3.5,50.3-7,75.1-10.6c3.5,3,7,6,10.6,9
		c-14.8,2.1-29.7,4.3-44.7,6.3c-15.1,2.1-30.4,4.1-45.7,6.2C190.3,565.5,191.9,561.8,193.4,558.2z"/>
	<path fill-rule="evenodd" clip-rule="evenodd" fill="#FFFFFF" d="M258.9,592c-7.1,0.6-14.2,1.3-21.4,1.9
		c-11.9-11.9-23.4-23.7-34.6-35.6c7-0.7,14-1.3,21-2C235.2,568.2,246.9,580.1,258.9,592z"/>
	<path fill-rule="evenodd" clip-rule="evenodd" fill="#CCCC00" d="M268.6,558.1c6.5,7,13.2,14,19.9,21.1c0,0-9.6,1.8-17.9,3.1
		c-8.3,1.3-18.8,2.8-18.8,2.8c-7.2-7.2-14.3-14.4-21.3-21.6C243.3,561.7,256,559.9,268.6,558.1z"/>
	<path fill-rule="evenodd" clip-rule="evenodd" fill="#D4CBBA" d="M497.1,461.6c2.9,0.3,5.8,0.5,8.7,0.7c0-0.2,0-0.4,0.1-0.6
		C503,461.7,500.1,461.7,497.1,461.6z"/>
	<polygon fill-rule="evenodd" clip-rule="evenodd" fill="#CCCC00" points="260.9,398.9 333.4,436.2 319,480.6 230,471.8 	"/>
	<polygon fill-rule="evenodd" clip-rule="evenodd" fill="#FFFFFF" points="344.7,438.6 328.4,483.2 316.7,481.8 333.8,433.2 	"/>
	<path fill-rule="evenodd" clip-rule="evenodd" fill="#662D91" d="M265.3,388.4l-4.5,10.5c60.7,32.2,122.6,62.8,185.8,92
		c3.8-2.3,9.3-4,15.1-5.2C394.8,453.8,329.3,421.4,265.3,388.4z"/>
	<path fill-rule="evenodd" clip-rule="evenodd" fill="#662D91" d="M260.9,398.9c6.3,3.3,12.6,6.6,19,9.9v0.1
		C273.5,405.6,267.2,402.3,260.9,398.9L260.9,398.9z M265.3,388.4c4.8,2.5,9.7,5,14.5,7.5v0.2C275,393.5,270.1,390.9,265.3,388.4z
		 M279.8,408.9v-0.1c19.3,10,38.9,20.1,59,30.1v0.1C319,429.2,299.4,419.1,279.8,408.9L279.8,408.9z M279.8,395.9
		c4.8,2.5,9.7,4.9,14.5,7.4l-0.8,0c-4.6-2.4-9.2-4.8-13.7-7.2V395.9L279.8,395.9z M338.8,425.7c-8.6-4.3-17.2-8.6-25.8-13l-1.3-0.1
		c9,4.6,18,9.3,27.1,13.9V425.7z M338.8,439.1V439c11.4,5.7,23,11.5,34.7,17.2c11.6,5.7,23.4,11.3,35.4,16.9v0.2
		C385.4,462.1,362,450.7,338.8,439.1L338.8,439.1z M338.8,425.7v0.8c8.2,4.1,16.4,8.3,24.8,12.4l2.4,0.2
		C356.9,434.7,347.8,430.2,338.8,425.7L338.8,425.7z M408.9,460.3c-7.3-3.5-14.6-7.1-21.8-10.6l-2.5-0.3c8,3.9,16.1,7.8,24.3,11.7
		V460.3z M408.9,473.2v-0.2c8,3.8,16.1,7.6,24.3,11.4l-0.2,0.1C425,480.8,416.9,477,408.9,473.2L408.9,473.2z M408.9,461.1
		c12.8,6.1,25.8,12.3,38.9,18.4l0.6-0.1c-13.2-6.3-26.4-12.7-39.5-19.1V461.1z"/>
	<path fill-rule="evenodd" clip-rule="evenodd" fill="#512677" d="M500.9,504.1l-0.1,0.9L500.9,504.1L500.9,504.1L500.9,504.1z
		 M503.1,515.7c80.7,14.2,160.6,26.1,239.7,36.3l-1.5-10.7c-76-10-151.8-21.5-227.4-34.7C511.3,509.7,507.6,512.9,503.1,515.7z"/>
	<polygon fill-rule="evenodd" clip-rule="evenodd" fill="#662D91" points="741.3,541.2 742.8,551.9 821.1,588.5 854.5,594.2 	"/>
	<polygon fill-rule="evenodd" clip-rule="evenodd" fill="#662D91" points="965.7,488.2 970.5,496.8 727.9,449.2 725.8,440.8 	"/>
	<polygon fill-rule="evenodd" clip-rule="evenodd" fill="#512677" points="725.8,440.8 727.9,448.9 530.9,499.5 529.7,491.5 	"/>
	<path fill-rule="evenodd" clip-rule="evenodd" fill="#662D91" d="M423.8,491L230,471.8l-3.5,8.2c0,0,193.1,21.2,196.2,19.6
		C425.9,497.9,430.5,491.7,423.8,491z"/>
	<path fill-rule="evenodd" clip-rule="evenodd" fill="#662D91" d="M505.6,392.8l-17.9-1.7l-12.6,84.6c3.7-0.1,7.1,0,10,0.2
		c4.6,0.4,7.7,0.8,9.9,1L505.6,392.8z"/>
	<path fill="#662D91" d="M447.5,506.7c-9.7,12-26.6,28-59.2,43.3c-19.9,9-45.9,17.9-79.7,25.2c-34.4,7.5-77.1,13.4-129.7,17.2
		c-1.4,3.3-2.8,6.6-4.2,9.8c59-3.7,106.5-10,144.6-18c37.4-7.9,65.7-17.5,87.4-27.4c30.8-14.6,48-29.8,58.4-41.8
		C458.7,512.9,452.1,509.9,447.5,506.7z"/>
	<polygon fill-rule="evenodd" clip-rule="evenodd" fill="#662D91" points="844.2,464.2 718.4,380.9 719.6,391.8 817.8,459 	"/>
	<polygon fill-rule="evenodd" clip-rule="evenodd" fill="#512677" points="665.5,351 718.4,380.9 719.7,391.8 653.8,354.3 	"/>
	<polygon fill-rule="evenodd" clip-rule="evenodd" fill="#662D91" points="716.8,372.4 925.7,398 929.5,406.3 718.1,380.8 	"/>
	<path fill-rule="evenodd" clip-rule="evenodd" fill="#512677" d="M716.8,372.5c0.6,2.9,1.2,5.7,1.7,8.6
		c-70,27.2-140.8,54.1-212.3,80.5c0.4-3.2,0.9-6.4,1.3-9.6C577.4,425.4,647.1,398.9,716.8,372.5z"/>
	<polygon fill-rule="evenodd" clip-rule="evenodd" fill="#662D91" points="506.9,452.6 496.3,452.1 496.5,461.6 505.8,461.7 	"/>
	<path fill-rule="evenodd" clip-rule="evenodd" fill="#662D91" d="M1007.5,578.5c-43.7-14.7-86.8-29.2-129.1-44
		c-38.1-13.3-75.6-26.8-112.5-40.3c3.2-1.8,6.5-3.4,9.8-4.8c34.1,12.5,68.6,25,103.7,37.4c40.7,14.3,82.1,28.4,124.1,42.6
		C1004.8,572.4,1006.2,575.5,1007.5,578.5z"/>
	<path fill-rule="evenodd" clip-rule="evenodd" fill="#662D91" d="M174.8,602.2c0.7-2.8,1.4-5.6,2.2-8.4
		c9.6,0.5,301.9,17.5,311.4,17.9c-0.4,2.8-0.7,5.7-1,8.5C477.5,619.7,184.7,602.7,174.8,602.2z"/>
	<path fill="#662D91" d="M848.5,464.1c-8.5,0.3-20.5,0.8-33.8,2.5c-13.5,1.7-28.5,4.5-42.8,9.3c-13.4,4.4-26.3,10.6-37.2,19.2
		c1.1,7.9,2.3,15.9,3.4,23.8c11.4-17.2,30.1-27.7,49.8-34.2c13.3-4.5,27.3-7.1,39.9-8.7c12.5-1.5,23.7-2,31.8-2.4
		C855.9,470.5,852.2,467.3,848.5,464.1z"/>
</g>
<g id="Layer_3">
	<g>
		<path fill-rule="evenodd" clip-rule="evenodd" fill="#662D91" d="M437.3,441.5c-1.3,0-2.4-1-2.5-2.3c-0.1-1.2-10.7-124.2-33.9-154
			c-22.9-7.1-43.4-21.4-57.9-40.4c-15.1-19.8-23.1-43.4-23.1-68.2c0-62.8,52.1-113.9,116.1-113.9c64,0,116.1,51.1,116.1,113.9
			c0,24.7-7.9,48.3-23,68c-14.4,18.9-34.8,33.2-57.5,40.4c-21.5,29.1-31.8,152.9-31.9,154.2C439.7,440.5,438.6,441.5,437.3,441.5
			C437.3,441.5,437.3,441.5,437.3,441.5z"/>
		<g>
			<path fill="#FFFFFF" d="M436.1,65.3c62.8,0,113.6,49.9,113.6,111.4c0,49.9-33.4,92.1-79.5,106.3C447.7,311.8,437.3,439,437.3,439
				s-10.7-126.2-34.9-156c-46.3-14.1-80-56.4-80-106.4C322.4,115.1,373.3,65.3,436.1,65.3 M436.1,60.3c-31.7,0-61.4,12.1-83.8,34.1
				c-22.4,22-34.8,51.2-34.8,82.3c0,25.4,8.2,49.5,23.6,69.7c14.6,19.1,35.3,33.6,58.3,41c6.5,8.8,15.8,30.9,24.6,85.6
				c5.6,34.7,8.3,66.1,8.3,66.5c0.2,2.6,2.4,4.6,5,4.6c0,0,0,0,0,0c2.6,0,4.8-2,5-4.6c0-0.3,2.6-32.1,8-66.9
				c8.3-54.7,17-76.6,23-85.3c22.9-7.4,43.5-21.9,58-41c15.4-20.2,23.5-44.3,23.5-69.5c0-31.1-12.4-60.3-34.8-82.3
				C497.5,72.4,467.7,60.3,436.1,60.3L436.1,60.3z"/>
		</g>
		<g>
			<path fill-rule="evenodd" clip-rule="evenodd" fill="#662D91" d="M470.2,282.9C447.7,311.8,437.3,439,437.3,439
				s-10.7-126.2-34.9-156c-46.3-14.1-80-56.4-80-106.4c0-61.5,50.9-111.4,113.6-111.4s113.6,49.9,113.6,111.4
				C549.7,226.5,516.3,268.7,470.2,282.9z"/>
			<defs>
				<filter id="Adobe_OpacityMaskFilter" filterUnits="userSpaceOnUse" x="322.4" y="65.3" width="227.2" height="373.8">
					
						<feColorMatrix  type="matrix" values="-1 0 0 0 1  0 -1 0 0 1  0 0 -1 0 1  0 0 0 1 0" color-interpolation-filters="sRGB" result="source"/>
				</filter>
			</defs>
			<mask maskUnits="userSpaceOnUse" x="322.4" y="65.3" width="227.2" height="373.8" id="SVGID_1_">
				<g filter="url(#Adobe_OpacityMaskFilter)">
					<image overflow="visible" width="232" height="379" xlink:href="D8EE83BF.jpg"  transform="matrix(1 0 0 1 320.3573 62.7132)">
					</image>
				</g>
			</mask>
			<path opacity="0.3" mask="url(#SVGID_1_)" fill-rule="evenodd" clip-rule="evenodd" d="M470.2,282.9
				C447.7,311.8,437.3,439,437.3,439s-10.7-126.2-34.9-156c-46.3-14.1-80-56.4-80-106.4c0-61.5,50.9-111.4,113.6-111.4
				s113.6,49.9,113.6,111.4C549.7,226.5,516.3,268.7,470.2,282.9z"/>
		</g>
	</g>
	<g>
		<path fill-rule="evenodd" clip-rule="evenodd" fill="#FFFFFF" d="M542.6,208.9c-12.9-27.8-3.4-43.6-4.8-49.4
			c-1.8-4.1-4.4-7.9-6.7-11.7c-3.8-6.4-6.2-14.1-11-19.6c-3.9-4.4-4.8-13-7.6-18.4c-3.8-7.4-8.9,0.4-8.5,5.8
			c0.6,8,4.6,15.6,6.8,23.1c-2.9-3-6.5-4.8-10.2-6.5c-3.7-1.7-6.7-4.8-10.3-6.8c-3.6-2-7.2-4-10.6-6.4c-5.5-2.4-6.6-6.5-10.6-8.7
			c-7-3.7-9.4,4.6-6.5,10.3c3.8,7.6,17.5,9.9,21.3,18.1c-6.7-4.1-22.6-6-30.3-7.8c-5-0.2-14.4-9-15.9-0.3
			c-1.5,8.5,10.7,11.1,16.4,13.4c7.7,3.1,18.1,5.8,25.2,10.3c-4.8-0.2-7.5,0.5-12,1.6c-4.8,1.2-10.5,0-15,1.5
			c-4.6,1.5-16.6,2.3-15.8,8c-0.2,0-1.4-0.1-1.8,0c0.9-5.8-11.2-6.5-15.8-8c-4.5-1.5-10.2-0.3-15-1.5c-4.5-1.1-7.2-1.8-12-1.6
			c7.1-4.5,17.5-7.2,25.2-10.3c5.8-2.3,17.9-4.9,16.4-13.4c-1.5-8.7-10.9,0.2-15.9,0.3c-7.7,1.8-23.6,3.6-30.3,7.8
			c3.9-8.3,17.5-10.5,21.3-18.1c2.9-5.8,0.5-14.1-6.5-10.3c-4,2.2-5.1,6.3-10.6,8.7c-3.4,2.3-7,4.3-10.6,6.4
			c-3.6,2-6.6,5.1-10.3,6.8c-3.7,1.7-7.3,3.5-10.2,6.5c2.3-7.6,6.2-15.1,6.8-23.1c0.4-5.4-4.7-13.2-8.5-5.8
			c-2.7,5.3-3.7,14-7.6,18.4c-4.9,5.5-7.2,13.3-11,19.6c-2.3,3.8-4.9,7.5-6.7,11.7c-1.3,5.8,7.6,20.4-4.5,48.1
			c4,15.4,17.4,35.3,27.5,44.2c6.3-6.4,13-26.7,30.4-29.9c8.9-1.6,46.3-30.4,47.2-44.8c1.2,0.3,2,0.3,2.7,0.1
			c1,14.4,38.3,43.1,47.2,44.7c17.4,3.2,24.9,23.5,31.1,30C523.1,245.3,536.5,229.1,542.6,208.9z M396.9,192.7
			c-13.1,0.6-20.9-14.5-36.2-17.7c8-5.6,20.8-11.7,33.8-12.3c29-1.3,28.4,11.4,28.3,14.1C422.4,182.9,409.6,192,396.9,192.7z
			 M449.1,176.8c-0.2-2.7-0.7-15.4,28.3-14.1c13,0.6,25.8,6.7,33.8,12.3c-15.3,3.2-23.1,18.3-36.2,17.7
			C462.3,192,449.4,182.9,449.1,176.8z"/>
	</g>
</g>
</svg>
